<svg width="90" height="24" viewBox="0 0 90 24" fill="none" xmlns="http://www.w3.org/2000/svg">
<g filter="url(#filter0_d_1_1187)">
<mask id="path-1-outside-1_1_1187" maskUnits="userSpaceOnUse" x="0.232666" y="0.166687" width="89" height="23" fill="black">
<rect fill="white" x="0.232666" y="0.166687" width="89" height="23"/>
<path d="M11.3513 22.4406C9.87209 22.4406 8.4842 22.1576 7.18762 21.5914C5.90931 21.0253 4.77708 20.2401 3.79095 19.2357C2.82308 18.2313 2.06522 17.0717 1.51737 15.7568C0.987781 14.4237 0.722987 12.9902 0.722987 11.4562C0.722987 9.94049 0.987781 8.52521 1.51737 7.21037C2.06522 5.87726 2.82308 4.71764 3.79095 3.73151C4.75882 2.72712 5.88191 1.94187 7.16023 1.37575C8.45681 0.791382 9.85383 0.499195 11.3513 0.499195C12.6844 0.499195 13.8805 0.690943 14.9397 1.07444C15.9989 1.43967 17.0307 2.04231 18.0351 2.88234C18.1994 3.01018 18.2999 3.15627 18.3364 3.32063C18.3912 3.46672 18.3912 3.61281 18.3364 3.75891C18.2999 3.905 18.2359 4.03283 18.1446 4.1424C18.1081 4.34328 17.9985 4.50764 17.8159 4.63547C17.6516 4.74504 17.4507 4.79982 17.2133 4.79982C16.9759 4.79982 16.7385 4.70851 16.5011 4.5259C15.8071 3.905 15.0584 3.44846 14.2549 3.15627C13.4514 2.84582 12.4835 2.6906 11.3513 2.6906C10.2008 2.6906 9.11423 2.928 8.09158 3.4028C7.08718 3.85934 6.20149 4.48937 5.4345 5.29289C4.66751 6.0964 4.06488 7.02775 3.6266 8.08693C3.20658 9.1461 2.99657 10.2692 2.99657 11.4562C2.99657 12.6797 3.20658 13.8211 3.6266 14.8803C4.06488 15.9395 4.66751 16.8708 5.4345 17.6743C6.20149 18.4778 7.08718 19.1079 8.09158 19.5644C9.11423 20.0209 10.2008 20.2492 11.3513 20.2492C12.3192 20.2492 13.2414 20.0849 14.1179 19.7561C14.9945 19.4274 15.8345 18.9618 16.638 18.3591C16.8937 18.1582 17.1494 18.0761 17.405 18.1126C17.679 18.1491 17.9072 18.2678 18.0899 18.4687C18.2907 18.6513 18.3912 18.907 18.3912 19.2357C18.3912 19.4 18.3638 19.5461 18.309 19.674C18.2542 19.8018 18.172 19.9388 18.0625 20.0849C17.1129 20.9066 16.0628 21.5093 14.9123 21.8928C13.7801 22.258 12.5931 22.4406 11.3513 22.4406ZM28.3195 22.3036C26.8403 22.3036 25.5254 21.9749 24.3749 21.3175C23.2427 20.6601 22.3479 19.7561 21.6905 18.6057C21.0331 17.4552 20.7043 16.1495 20.7043 14.6885C20.7043 13.2093 21.0331 11.8945 21.6905 10.744C22.3479 9.59351 23.2427 8.68956 24.3749 8.03214C25.5254 7.37472 26.8403 7.04601 28.3195 7.04601C29.7804 7.04601 31.077 7.37472 32.2092 8.03214C33.3414 8.68956 34.2363 9.59351 34.8937 10.744C35.5511 11.8945 35.8889 13.2093 35.9072 14.6885C35.9072 16.1495 35.5785 17.4552 34.9211 18.6057C34.2636 19.7561 33.3597 20.6601 32.2092 21.3175C31.077 21.9749 29.7804 22.3036 28.3195 22.3036ZM28.3195 20.2218C29.3421 20.2218 30.2552 19.9844 31.0587 19.5096C31.8622 19.0165 32.4923 18.3591 32.9488 17.5373C33.4053 16.6973 33.6336 15.7477 33.6336 14.6885C33.6336 13.6293 33.4053 12.6797 32.9488 11.8397C32.4923 10.9997 31.8622 10.3422 31.0587 9.86744C30.2552 9.37437 29.3421 9.12784 28.3195 9.12784C27.2968 9.12784 26.3746 9.37437 25.5528 9.86744C24.7493 10.3422 24.1101 10.9997 23.6353 11.8397C23.1788 12.6797 22.9505 13.6293 22.9505 14.6885C22.9505 15.7477 23.1788 16.6973 23.6353 17.5373C24.1101 18.3591 24.7493 19.0165 25.5528 19.5096C26.3746 19.9844 27.2968 20.2218 28.3195 20.2218ZM43.352 22.1667C42.585 22.1667 41.9093 21.9658 41.3249 21.5641C40.7405 21.144 40.284 20.5688 39.9553 19.8383C39.6266 19.1079 39.4622 18.2678 39.4622 17.3182V1.92361C39.4622 1.57663 39.5627 1.30271 39.7635 1.10183C39.9827 0.88269 40.2657 0.77312 40.6127 0.77312C40.9414 0.77312 41.2062 0.88269 41.4071 1.10183C41.6262 1.30271 41.7358 1.57663 41.7358 1.92361V17.3182C41.7358 18.0669 41.8819 18.6878 42.1741 19.1809C42.4845 19.6557 42.8772 19.8931 43.352 19.8931H44.0368C44.329 19.8931 44.5664 20.0027 44.749 20.2218C44.9316 20.4227 45.0229 20.6875 45.0229 21.0162C45.0229 21.3632 44.886 21.6462 44.612 21.8654C44.3564 22.0662 44.0185 22.1667 43.5985 22.1667H43.352ZM51.2434 22.1667C50.4764 22.1667 49.8007 21.9658 49.2163 21.5641C48.632 21.144 48.1754 20.5688 47.8467 19.8383C47.518 19.1079 47.3536 18.2678 47.3536 17.3182V1.92361C47.3536 1.57663 47.4541 1.30271 47.655 1.10183C47.8741 0.88269 48.1571 0.77312 48.5041 0.77312C48.8328 0.77312 49.0976 0.88269 49.2985 1.10183C49.5176 1.30271 49.6272 1.57663 49.6272 1.92361V17.3182C49.6272 18.0669 49.7733 18.6878 50.0655 19.1809C50.3759 19.6557 50.7686 19.8931 51.2434 19.8931H51.9282C52.2204 19.8931 52.4578 20.0027 52.6404 20.2218C52.823 20.4227 52.9143 20.6875 52.9143 21.0162C52.9143 21.3632 52.7774 21.6462 52.5034 21.8654C52.2478 22.0662 51.9099 22.1667 51.4899 22.1667H51.2434ZM61.4557 22.3036C60.0678 22.3036 58.826 21.9749 57.7303 21.3175C56.6346 20.6418 55.7671 19.7288 55.128 18.5783C54.4888 17.4278 54.1692 16.1312 54.1692 14.6885C54.1692 13.2276 54.4979 11.9219 55.1554 10.7714C55.8311 9.62091 56.7441 8.71695 57.8946 8.05953C59.0451 7.38385 60.3417 7.04601 61.7844 7.04601C63.2088 7.04601 64.4871 7.38385 65.6193 8.05953C66.7698 8.71695 67.6738 9.62091 68.3312 10.7714C69.0069 11.9219 69.3538 13.2276 69.3721 14.6885L68.4407 15.1542C68.4407 16.5056 68.1303 17.72 67.5094 18.7974C66.9068 19.8748 66.0759 20.7331 65.0167 21.3723C63.9758 21.9932 62.7888 22.3036 61.4557 22.3036ZM61.7844 20.2218C62.807 20.2218 63.711 19.9844 64.4962 19.5096C65.2997 19.0165 65.9298 18.35 66.3863 17.51C66.8611 16.6699 67.0985 15.7294 67.0985 14.6885C67.0985 13.6293 66.8611 12.6889 66.3863 11.8671C65.9298 11.0271 65.2997 10.3605 64.4962 9.86744C63.711 9.37437 62.807 9.12784 61.7844 9.12784C60.78 9.12784 59.8669 9.37437 59.0451 9.86744C58.2416 10.3605 57.6024 11.0271 57.1276 11.8671C56.6528 12.6889 56.4154 13.6293 56.4154 14.6885C56.4154 15.7294 56.6528 16.6699 57.1276 17.51C57.6024 18.35 58.2416 19.0165 59.0451 19.5096C59.8669 19.9844 60.78 20.2218 61.7844 20.2218ZM68.1942 22.1667C67.8655 22.1667 67.5824 22.0662 67.345 21.8654C67.1259 21.6462 67.0163 21.3632 67.0163 21.0162V16.4964L67.5368 14.1133L69.3721 14.6885V21.0162C69.3721 21.3632 69.2625 21.6462 69.0434 21.8654C68.8242 22.0662 68.5412 22.1667 68.1942 22.1667ZM81.0353 22.3036C79.6109 22.3036 78.3326 21.9749 77.2004 21.3175C76.0681 20.6418 75.1642 19.7379 74.4885 18.6057C73.8311 17.4552 73.4932 16.1677 73.475 14.7433V1.951C73.475 1.58577 73.5754 1.30271 73.7763 1.10183C73.9954 0.88269 74.2876 0.77312 74.6529 0.77312C74.9998 0.77312 75.2738 0.88269 75.4746 1.10183C75.6938 1.30271 75.8034 1.58577 75.8034 1.951V9.78526C76.406 8.96349 77.1912 8.30607 78.1591 7.813C79.127 7.30167 80.2044 7.04601 81.3914 7.04601C82.7793 7.04601 84.0211 7.38385 85.1168 8.05953C86.2125 8.71695 87.0708 9.62091 87.6917 10.7714C88.3309 11.9219 88.6504 13.2185 88.6504 14.6611C88.6504 16.1221 88.3126 17.4278 87.6369 18.5783C86.9795 19.7288 86.0756 20.6418 84.9251 21.3175C83.7928 21.9749 82.4963 22.3036 81.0353 22.3036ZM81.0353 20.2218C82.058 20.2218 82.9711 19.9753 83.7746 19.4822C84.5964 18.9892 85.2355 18.3317 85.6921 17.51C86.1669 16.6699 86.4043 15.7203 86.4043 14.6611C86.4043 13.6202 86.1669 12.6797 85.6921 11.8397C85.2355 10.9997 84.5964 10.3422 83.7746 9.86744C82.9711 9.37437 82.058 9.12784 81.0353 9.12784C80.0492 9.12784 79.1452 9.37437 78.3235 9.86744C77.52 10.3422 76.8899 10.9997 76.4334 11.8397C75.9768 12.6797 75.7486 13.6202 75.7486 14.6611C75.7486 15.7203 75.9768 16.6699 76.4334 17.51C76.8899 18.3317 77.52 18.9892 78.3235 19.4822C79.1452 19.9753 80.0492 20.2218 81.0353 20.2218Z"/>
</mask>
<path d="M11.3513 22.4406C9.87209 22.4406 8.4842 22.1576 7.18762 21.5914C5.90931 21.0253 4.77708 20.2401 3.79095 19.2357C2.82308 18.2313 2.06522 17.0717 1.51737 15.7568C0.987781 14.4237 0.722987 12.9902 0.722987 11.4562C0.722987 9.94049 0.987781 8.52521 1.51737 7.21037C2.06522 5.87726 2.82308 4.71764 3.79095 3.73151C4.75882 2.72712 5.88191 1.94187 7.16023 1.37575C8.45681 0.791382 9.85383 0.499195 11.3513 0.499195C12.6844 0.499195 13.8805 0.690943 14.9397 1.07444C15.9989 1.43967 17.0307 2.04231 18.0351 2.88234C18.1994 3.01018 18.2999 3.15627 18.3364 3.32063C18.3912 3.46672 18.3912 3.61281 18.3364 3.75891C18.2999 3.905 18.2359 4.03283 18.1446 4.1424C18.1081 4.34328 17.9985 4.50764 17.8159 4.63547C17.6516 4.74504 17.4507 4.79982 17.2133 4.79982C16.9759 4.79982 16.7385 4.70851 16.5011 4.5259C15.8071 3.905 15.0584 3.44846 14.2549 3.15627C13.4514 2.84582 12.4835 2.6906 11.3513 2.6906C10.2008 2.6906 9.11423 2.928 8.09158 3.4028C7.08718 3.85934 6.20149 4.48937 5.4345 5.29289C4.66751 6.0964 4.06488 7.02775 3.6266 8.08693C3.20658 9.1461 2.99657 10.2692 2.99657 11.4562C2.99657 12.6797 3.20658 13.8211 3.6266 14.8803C4.06488 15.9395 4.66751 16.8708 5.4345 17.6743C6.20149 18.4778 7.08718 19.1079 8.09158 19.5644C9.11423 20.0209 10.2008 20.2492 11.3513 20.2492C12.3192 20.2492 13.2414 20.0849 14.1179 19.7561C14.9945 19.4274 15.8345 18.9618 16.638 18.3591C16.8937 18.1582 17.1494 18.0761 17.405 18.1126C17.679 18.1491 17.9072 18.2678 18.0899 18.4687C18.2907 18.6513 18.3912 18.907 18.3912 19.2357C18.3912 19.4 18.3638 19.5461 18.309 19.674C18.2542 19.8018 18.172 19.9388 18.0625 20.0849C17.1129 20.9066 16.0628 21.5093 14.9123 21.8928C13.7801 22.258 12.5931 22.4406 11.3513 22.4406ZM28.3195 22.3036C26.8403 22.3036 25.5254 21.9749 24.3749 21.3175C23.2427 20.6601 22.3479 19.7561 21.6905 18.6057C21.0331 17.4552 20.7043 16.1495 20.7043 14.6885C20.7043 13.2093 21.0331 11.8945 21.6905 10.744C22.3479 9.59351 23.2427 8.68956 24.3749 8.03214C25.5254 7.37472 26.8403 7.04601 28.3195 7.04601C29.7804 7.04601 31.077 7.37472 32.2092 8.03214C33.3414 8.68956 34.2363 9.59351 34.8937 10.744C35.5511 11.8945 35.8889 13.2093 35.9072 14.6885C35.9072 16.1495 35.5785 17.4552 34.9211 18.6057C34.2636 19.7561 33.3597 20.6601 32.2092 21.3175C31.077 21.9749 29.7804 22.3036 28.3195 22.3036ZM28.3195 20.2218C29.3421 20.2218 30.2552 19.9844 31.0587 19.5096C31.8622 19.0165 32.4923 18.3591 32.9488 17.5373C33.4053 16.6973 33.6336 15.7477 33.6336 14.6885C33.6336 13.6293 33.4053 12.6797 32.9488 11.8397C32.4923 10.9997 31.8622 10.3422 31.0587 9.86744C30.2552 9.37437 29.3421 9.12784 28.3195 9.12784C27.2968 9.12784 26.3746 9.37437 25.5528 9.86744C24.7493 10.3422 24.1101 10.9997 23.6353 11.8397C23.1788 12.6797 22.9505 13.6293 22.9505 14.6885C22.9505 15.7477 23.1788 16.6973 23.6353 17.5373C24.1101 18.3591 24.7493 19.0165 25.5528 19.5096C26.3746 19.9844 27.2968 20.2218 28.3195 20.2218ZM43.352 22.1667C42.585 22.1667 41.9093 21.9658 41.3249 21.5641C40.7405 21.144 40.284 20.5688 39.9553 19.8383C39.6266 19.1079 39.4622 18.2678 39.4622 17.3182V1.92361C39.4622 1.57663 39.5627 1.30271 39.7635 1.10183C39.9827 0.88269 40.2657 0.77312 40.6127 0.77312C40.9414 0.77312 41.2062 0.88269 41.4071 1.10183C41.6262 1.30271 41.7358 1.57663 41.7358 1.92361V17.3182C41.7358 18.0669 41.8819 18.6878 42.1741 19.1809C42.4845 19.6557 42.8772 19.8931 43.352 19.8931H44.0368C44.329 19.8931 44.5664 20.0027 44.749 20.2218C44.9316 20.4227 45.0229 20.6875 45.0229 21.0162C45.0229 21.3632 44.886 21.6462 44.612 21.8654C44.3564 22.0662 44.0185 22.1667 43.5985 22.1667H43.352ZM51.2434 22.1667C50.4764 22.1667 49.8007 21.9658 49.2163 21.5641C48.632 21.144 48.1754 20.5688 47.8467 19.8383C47.518 19.1079 47.3536 18.2678 47.3536 17.3182V1.92361C47.3536 1.57663 47.4541 1.30271 47.655 1.10183C47.8741 0.88269 48.1571 0.77312 48.5041 0.77312C48.8328 0.77312 49.0976 0.88269 49.2985 1.10183C49.5176 1.30271 49.6272 1.57663 49.6272 1.92361V17.3182C49.6272 18.0669 49.7733 18.6878 50.0655 19.1809C50.3759 19.6557 50.7686 19.8931 51.2434 19.8931H51.9282C52.2204 19.8931 52.4578 20.0027 52.6404 20.2218C52.823 20.4227 52.9143 20.6875 52.9143 21.0162C52.9143 21.3632 52.7774 21.6462 52.5034 21.8654C52.2478 22.0662 51.9099 22.1667 51.4899 22.1667H51.2434ZM61.4557 22.3036C60.0678 22.3036 58.826 21.9749 57.7303 21.3175C56.6346 20.6418 55.7671 19.7288 55.128 18.5783C54.4888 17.4278 54.1692 16.1312 54.1692 14.6885C54.1692 13.2276 54.4979 11.9219 55.1554 10.7714C55.8311 9.62091 56.7441 8.71695 57.8946 8.05953C59.0451 7.38385 60.3417 7.04601 61.7844 7.04601C63.2088 7.04601 64.4871 7.38385 65.6193 8.05953C66.7698 8.71695 67.6738 9.62091 68.3312 10.7714C69.0069 11.9219 69.3538 13.2276 69.3721 14.6885L68.4407 15.1542C68.4407 16.5056 68.1303 17.72 67.5094 18.7974C66.9068 19.8748 66.0759 20.7331 65.0167 21.3723C63.9758 21.9932 62.7888 22.3036 61.4557 22.3036ZM61.7844 20.2218C62.807 20.2218 63.711 19.9844 64.4962 19.5096C65.2997 19.0165 65.9298 18.35 66.3863 17.51C66.8611 16.6699 67.0985 15.7294 67.0985 14.6885C67.0985 13.6293 66.8611 12.6889 66.3863 11.8671C65.9298 11.0271 65.2997 10.3605 64.4962 9.86744C63.711 9.37437 62.807 9.12784 61.7844 9.12784C60.78 9.12784 59.8669 9.37437 59.0451 9.86744C58.2416 10.3605 57.6024 11.0271 57.1276 11.8671C56.6528 12.6889 56.4154 13.6293 56.4154 14.6885C56.4154 15.7294 56.6528 16.6699 57.1276 17.51C57.6024 18.35 58.2416 19.0165 59.0451 19.5096C59.8669 19.9844 60.78 20.2218 61.7844 20.2218ZM68.1942 22.1667C67.8655 22.1667 67.5824 22.0662 67.345 21.8654C67.1259 21.6462 67.0163 21.3632 67.0163 21.0162V16.4964L67.5368 14.1133L69.3721 14.6885V21.0162C69.3721 21.3632 69.2625 21.6462 69.0434 21.8654C68.8242 22.0662 68.5412 22.1667 68.1942 22.1667ZM81.0353 22.3036C79.6109 22.3036 78.3326 21.9749 77.2004 21.3175C76.0681 20.6418 75.1642 19.7379 74.4885 18.6057C73.8311 17.4552 73.4932 16.1677 73.475 14.7433V1.951C73.475 1.58577 73.5754 1.30271 73.7763 1.10183C73.9954 0.88269 74.2876 0.77312 74.6529 0.77312C74.9998 0.77312 75.2738 0.88269 75.4746 1.10183C75.6938 1.30271 75.8034 1.58577 75.8034 1.951V9.78526C76.406 8.96349 77.1912 8.30607 78.1591 7.813C79.127 7.30167 80.2044 7.04601 81.3914 7.04601C82.7793 7.04601 84.0211 7.38385 85.1168 8.05953C86.2125 8.71695 87.0708 9.62091 87.6917 10.7714C88.3309 11.9219 88.6504 13.2185 88.6504 14.6611C88.6504 16.1221 88.3126 17.4278 87.6369 18.5783C86.9795 19.7288 86.0756 20.6418 84.9251 21.3175C83.7928 21.9749 82.4963 22.3036 81.0353 22.3036ZM81.0353 20.2218C82.058 20.2218 82.9711 19.9753 83.7746 19.4822C84.5964 18.9892 85.2355 18.3317 85.6921 17.51C86.1669 16.6699 86.4043 15.7203 86.4043 14.6611C86.4043 13.6202 86.1669 12.6797 85.6921 11.8397C85.2355 10.9997 84.5964 10.3422 83.7746 9.86744C82.9711 9.37437 82.058 9.12784 81.0353 9.12784C80.0492 9.12784 79.1452 9.37437 78.3235 9.86744C77.52 10.3422 76.8899 10.9997 76.4334 11.8397C75.9768 12.6797 75.7486 13.6202 75.7486 14.6611C75.7486 15.7203 75.9768 16.6699 76.4334 17.51C76.8899 18.3317 77.52 18.9892 78.3235 19.4822C79.1452 19.9753 80.0492 20.2218 81.0353 20.2218Z" fill="#9A54BC"/>
<path d="M7.18762 21.5914L7.13652 21.7068L7.13713 21.7071L7.18762 21.5914ZM3.79095 19.2357L3.70007 19.3233L3.7009 19.3241L3.79095 19.2357ZM1.51737 15.7568L1.40007 15.8034L1.40088 15.8054L1.51737 15.7568ZM1.51737 7.21037L1.40064 7.16239L1.40031 7.16322L1.51737 7.21037ZM3.79095 3.73151L3.88102 3.81991L3.88182 3.81908L3.79095 3.73151ZM7.16023 1.37575L7.21133 1.49115L7.21209 1.49081L7.16023 1.37575ZM14.9397 1.07444L14.8967 1.19311L14.8986 1.19374L14.9397 1.07444ZM18.0351 2.88234L17.9541 2.97921L17.9576 2.98196L18.0351 2.88234ZM18.3364 3.32063L18.2132 3.348L18.2151 3.35665L18.2182 3.36494L18.3364 3.32063ZM18.3364 3.7589L18.2182 3.71459L18.2157 3.72132L18.214 3.7283L18.3364 3.7589ZM18.1446 4.1424L18.0477 4.06161L18.0264 4.08713L18.0205 4.11983L18.1446 4.1424ZM17.8159 4.63547L17.8859 4.7405L17.8883 4.73885L17.8159 4.63547ZM16.5011 4.5259L16.4167 4.6202L16.4241 4.62592L16.5011 4.5259ZM14.2549 3.15627L14.2094 3.27401L14.2118 3.27487L14.2549 3.15627ZM8.09158 3.4028L8.1438 3.51769L8.14472 3.51727L8.09158 3.4028ZM5.4345 5.29289L5.34322 5.20575L5.4345 5.29289ZM3.6266 8.08693L3.50997 8.03867L3.50928 8.04041L3.6266 8.08693ZM3.6266 14.8803L3.50927 14.9268L3.50999 14.9285L3.6266 14.8803ZM5.4345 17.6743L5.52579 17.5872L5.4345 17.6743ZM8.09158 19.5644L8.03936 19.6793L8.04013 19.6796L8.09158 19.5644ZM14.1179 19.7561L14.1622 19.8743L14.1179 19.7561ZM16.638 18.3591L16.7138 18.4601L16.716 18.4584L16.638 18.3591ZM17.405 18.1126L17.3872 18.2375L17.3884 18.2377L17.405 18.1126ZM18.0899 18.4687L17.996 18.554L18.005 18.5621L18.0899 18.4687ZM18.309 19.674L18.425 19.7237L18.309 19.674ZM18.0625 20.0849L18.145 20.1803L18.1553 20.1714L18.1634 20.1606L18.0625 20.0849ZM14.9123 21.8928L14.9511 22.0129L14.9522 22.0125L14.9123 21.8928ZM11.3513 22.3144C9.88866 22.3144 8.51805 22.0346 7.23812 21.4758L7.13713 21.7071C8.45036 22.2805 9.85552 22.5668 11.3513 22.5668V22.3144ZM7.23873 21.4761C5.97508 20.9164 4.85605 20.1404 3.881 19.1473L3.7009 19.3241C4.69812 20.3398 5.84353 21.1342 7.13652 21.7068L7.23873 21.4761ZM3.88182 19.1481C2.92508 18.1553 2.17581 17.009 1.63386 15.7083L1.40088 15.8054C1.95464 17.1344 2.72108 18.3073 3.70008 19.3233L3.88182 19.1481ZM1.63465 15.7102C1.11135 14.393 0.849185 12.9754 0.849185 11.4562H0.596788C0.596788 13.005 0.864209 14.4545 1.40009 15.8034L1.63465 15.7102ZM0.849185 11.4562C0.849185 9.95551 1.11129 8.55635 1.63443 7.25751L1.40031 7.16322C0.864276 8.49406 0.596788 9.92546 0.596788 11.4562H0.849185ZM1.6341 7.25834C2.17603 5.93964 2.92505 4.79391 3.88102 3.81991L3.70088 3.64312C2.72111 4.64137 1.95442 5.81488 1.40064 7.1624L1.6341 7.25834ZM3.88182 3.81908C4.83833 2.82648 5.94791 2.05066 7.21133 1.49114L7.10913 1.26037C5.81592 1.83308 4.67931 2.62776 3.70008 3.64394L3.88182 3.81908ZM7.21209 1.49081C8.49151 0.914168 9.87074 0.625394 11.3513 0.625394V0.372997C9.83692 0.372997 8.42212 0.668595 7.10838 1.2607L7.21209 1.49081ZM11.3513 0.625394C12.6724 0.625394 13.8536 0.815412 14.8967 1.1931L14.9827 0.955777C13.9075 0.566474 12.6964 0.372997 11.3513 0.372997V0.625394ZM14.8986 1.19374C15.941 1.5532 16.9596 2.14734 17.9541 2.97915L18.116 2.78554C17.1018 1.93727 16.0568 1.32615 14.9809 0.955133L14.8986 1.19374ZM17.9576 2.98196C18.1044 3.09616 18.1844 3.21861 18.2132 3.348L18.4596 3.29325C18.4153 3.09394 18.2944 2.92419 18.1125 2.78273L17.9576 2.98196ZM18.2182 3.36494C18.2623 3.48246 18.2623 3.59707 18.2182 3.71459L18.4545 3.80322C18.52 3.62855 18.52 3.45098 18.4545 3.27631L18.2182 3.36494ZM18.214 3.7283C18.1818 3.85701 18.1262 3.96745 18.0477 4.06161L18.2416 4.22319C18.3457 4.09821 18.4179 3.95298 18.4588 3.78951L18.214 3.7283ZM18.0205 4.11983C17.9905 4.28484 17.9017 4.42139 17.7436 4.53208L17.8883 4.73885C18.0954 4.59388 18.2258 4.40172 18.2688 4.16498L18.0205 4.11983ZM17.7459 4.53046C17.6062 4.62363 17.4309 4.67362 17.2133 4.67362V4.92602C17.4705 4.92602 17.697 4.86644 17.8859 4.74047L17.7459 4.53046ZM17.2133 4.67362C17.0103 4.67362 16.7992 4.59602 16.578 4.42587L16.4241 4.62592C16.6777 4.821 16.9415 4.92602 17.2133 4.92602V4.67362ZM16.5852 4.43185C15.8804 3.80119 15.1179 3.33582 14.298 3.03767L14.2118 3.27487C14.9989 3.56109 15.7339 4.00881 16.4169 4.61994L16.5852 4.43185ZM14.3004 3.03855C13.4786 2.72104 12.4944 2.5644 11.3513 2.5644V2.8168C12.4726 2.8168 13.4242 2.9706 14.2094 3.27399L14.3004 3.03855ZM11.3513 2.5644C10.1828 2.5644 9.07808 2.80564 8.03843 3.28834L8.14472 3.51727C9.15038 3.05035 10.2188 2.8168 11.3513 2.8168V2.5644ZM8.03936 3.28791C7.02019 3.75117 6.12126 4.39066 5.34322 5.20575L5.52579 5.38002C6.28173 4.58809 7.15418 3.96751 8.1438 3.51769L8.03936 3.28791ZM5.34322 5.20575C4.56511 6.02091 3.95404 6.96555 3.50999 8.03867L3.74321 8.13518C4.17571 7.08995 4.76991 6.17189 5.52579 5.38002L5.34322 5.20575ZM3.50928 8.04041C3.08315 9.11501 2.87037 10.2539 2.87037 11.4562H3.12277C3.12277 10.2844 3.33 9.1772 3.74391 8.13345L3.50928 8.04041ZM2.87037 11.4562C2.87037 12.6945 3.08297 13.8517 3.50928 14.9268L3.74391 14.8338C3.33018 13.7904 3.12277 12.665 3.12277 11.4562H2.87037ZM3.50999 14.9285C3.95404 16.0017 4.56511 16.9463 5.34322 17.7614L5.52579 17.5872C4.76991 16.7953 4.17571 15.8773 3.74321 14.832L3.50999 14.9285ZM5.34322 17.7614C6.12126 18.5765 7.02019 19.216 8.03936 19.6793L8.1438 19.4495C7.15418 18.9997 6.28173 18.3791 5.52579 17.5872L5.34322 17.7614ZM8.04013 19.6796C9.07942 20.1436 10.1836 20.3754 11.3513 20.3754V20.123C10.218 20.123 9.14904 19.8983 8.14302 19.4492L8.04013 19.6796ZM11.3513 20.3754C12.3338 20.3754 13.271 20.2085 14.1622 19.8743L14.0736 19.638C13.2117 19.9612 12.3045 20.123 11.3513 20.123V20.3754ZM14.1622 19.8743C15.0508 19.5411 15.9014 19.0694 16.7138 18.4601L16.5623 18.2582C15.7677 18.8541 14.9382 19.3138 14.0736 19.638L14.1622 19.8743ZM16.716 18.4584C16.952 18.2729 17.174 18.2071 17.3872 18.2375L17.4229 17.9877C17.1248 17.9451 16.8354 18.0436 16.5601 18.2599L16.716 18.4584ZM17.3884 18.2377C17.6334 18.2703 17.8343 18.3752 17.9965 18.5536L18.1832 18.3838C17.9802 18.1605 17.7246 18.0279 17.4217 17.9875L17.3884 18.2377ZM18.005 18.5621C18.1741 18.7158 18.265 18.9344 18.265 19.2357H18.5174C18.5174 18.8795 18.4074 18.5868 18.1747 18.3753L18.005 18.5621ZM18.265 19.2357C18.265 19.386 18.2399 19.5147 18.193 19.6243L18.425 19.7237C18.4876 19.5776 18.5174 19.4141 18.5174 19.2357H18.265ZM18.193 19.6243C18.1432 19.7405 18.0668 19.8687 17.9615 20.0091L18.1634 20.1606C18.2773 20.0088 18.3652 19.8631 18.425 19.7237L18.193 19.6243ZM17.9799 19.9894C17.0423 20.8008 16.0067 21.395 14.8724 21.773L14.9522 22.0125C16.1189 21.6236 17.1834 21.0125 18.145 20.1803L17.9799 19.9894ZM14.8736 21.7727C13.7544 22.1337 12.5805 22.3144 11.3513 22.3144V22.5668C12.6057 22.5668 13.8058 22.3823 14.9511 22.0129L14.8736 21.7727ZM24.3749 21.3175L24.3116 21.4267L24.3123 21.4271L24.3749 21.3175ZM21.6905 18.6057L21.8 18.543L21.6905 18.6057ZM21.6905 10.744L21.5809 10.6814L21.6905 10.744ZM24.3749 8.03214L24.3123 7.92257L24.3116 7.92301L24.3749 8.03214ZM32.2092 8.03214L32.1458 8.14128L32.2092 8.03214ZM34.8937 10.744L35.0032 10.6814L34.8937 10.744ZM35.9072 14.6885H36.0334L36.0334 14.687L35.9072 14.6885ZM34.9211 18.6057L34.8115 18.543L34.9211 18.6057ZM32.2092 21.3175L32.1466 21.2079L32.1458 21.2084L32.2092 21.3175ZM31.0587 19.5096L31.1229 19.6183L31.1247 19.6172L31.0587 19.5096ZM32.9488 17.5373L33.0591 17.5986L33.0597 17.5976L32.9488 17.5373ZM32.9488 11.8397L32.8379 11.9L32.9488 11.8397ZM31.0587 9.86744L30.9927 9.97502L30.9945 9.97609L31.0587 9.86744ZM25.5528 9.86744L25.617 9.97609L25.6177 9.97565L25.5528 9.86744ZM23.6353 11.8397L23.5255 11.7776L23.5245 11.7794L23.6353 11.8397ZM23.6353 17.5373L23.5244 17.5976L23.5261 17.6005L23.6353 17.5373ZM25.5528 19.5096L25.4868 19.6172L25.4897 19.6189L25.5528 19.5096ZM28.3195 22.1775C26.8596 22.1775 25.5668 21.8532 24.4376 21.2079L24.3123 21.4271C25.484 22.0966 26.8209 22.4298 28.3195 22.4298V22.1775ZM24.4383 21.2084C23.3256 20.5623 22.4466 19.6745 21.8 18.543L21.5809 18.6683C22.2492 19.8378 23.1599 20.7579 24.3116 21.4267L24.4383 21.2084ZM21.8 18.543C21.1546 17.4135 20.8305 16.1298 20.8305 14.6885H20.5781C20.5781 16.1691 20.9115 17.4968 21.5809 18.6683L21.8 18.543ZM20.8305 14.6885C20.8305 13.2287 21.1547 11.9359 21.8 10.8066L21.5809 10.6814C20.9114 11.8531 20.5781 13.19 20.5781 14.6885H20.8305ZM21.8 10.8066C22.4466 9.67519 23.3256 8.78739 24.4383 8.14128L24.3116 7.92301C23.1599 8.59173 22.2492 9.51184 21.5809 10.6814L21.8 10.8066ZM24.4376 8.14171C25.5668 7.49641 26.8596 7.17221 28.3195 7.17221V6.91981C26.8209 6.91981 25.484 7.25303 24.3123 7.92257L24.4376 8.14171ZM28.3195 7.17221C29.7608 7.17221 31.035 7.49629 32.1458 8.14128L32.2726 7.92301C31.1189 7.25315 29.8 6.91981 28.3195 6.91981V7.17221ZM32.1458 8.14128C33.2586 8.78739 34.1376 9.67519 34.7841 10.8066L35.0032 10.6814C34.3349 9.51184 33.4243 8.59173 32.2726 7.92301L32.1458 8.14128ZM34.7841 10.8066C35.4297 11.9364 35.763 13.2298 35.781 14.6901L36.0334 14.687C36.0149 13.1889 35.6725 11.8526 35.0032 10.6814L34.7841 10.8066ZM35.781 14.6885C35.781 16.1298 35.4569 17.4135 34.8115 18.543L35.0306 18.6683C35.7 17.4968 36.0334 16.1691 36.0334 14.6885H35.781ZM34.8115 18.543C34.1653 19.674 33.2775 20.5617 32.1466 21.2079L32.2718 21.4271C33.4419 20.7585 34.362 19.8383 35.0306 18.6683L34.8115 18.543ZM32.1458 21.2084C31.035 21.8534 29.7608 22.1775 28.3195 22.1775V22.4298C29.8 22.4298 31.1189 22.0965 32.2726 21.4267L32.1458 21.2084ZM28.3195 20.348C29.3625 20.348 30.2981 20.1056 31.1229 19.6183L30.9945 19.401C30.2123 19.8632 29.3218 20.0956 28.3195 20.0956V20.348ZM31.1247 19.6172C31.9467 19.1128 32.592 18.4394 33.0591 17.5986L32.8385 17.4761C32.3925 18.2788 31.7778 18.9203 30.9927 19.4021L31.1247 19.6172ZM33.0597 17.5976C33.5273 16.7371 33.7598 15.7664 33.7598 14.6885H33.5074C33.5074 15.729 33.2834 16.6575 32.8379 17.4771L33.0597 17.5976ZM33.7598 14.6885C33.7598 13.6106 33.5273 12.6399 33.0597 11.7794L32.8379 11.9C33.2834 12.7196 33.5074 13.6481 33.5074 14.6885H33.7598ZM33.0597 11.7794C32.5925 10.9199 31.9466 10.2455 31.1229 9.75879L30.9945 9.97609C31.7779 10.439 32.392 11.0795 32.8379 11.9L33.0597 11.7794ZM31.1247 9.75988C30.2997 9.2536 29.3634 9.00164 28.3195 9.00164V9.25404C29.3209 9.25404 30.2107 9.49515 30.9927 9.975L31.1247 9.75988ZM28.3195 9.00164C27.2755 9.00164 26.3306 9.2536 25.4879 9.75923L25.6177 9.97565C26.4186 9.49515 27.3181 9.25404 28.3195 9.25404V9.00164ZM25.4886 9.75879C24.6654 10.2452 24.0108 10.919 23.5255 11.7776L23.7452 11.9018C24.2095 11.0803 24.8332 10.4393 25.617 9.97609L25.4886 9.75879ZM23.5245 11.7794C23.0568 12.6399 22.8243 13.6106 22.8243 14.6885H23.0767C23.0767 13.6481 23.3008 12.7196 23.7462 11.9L23.5245 11.7794ZM22.8243 14.6885C22.8243 15.7664 23.0568 16.7371 23.5245 17.5976L23.7462 17.4771C23.3008 16.6575 23.0767 15.729 23.0767 14.6885H22.8243ZM23.5261 17.6005C24.0113 18.4403 24.6653 19.1131 25.4868 19.6172L25.6188 19.4021C24.8333 18.92 24.209 18.2779 23.7446 17.4742L23.5261 17.6005ZM25.4897 19.6189C26.3321 20.1056 27.2764 20.348 28.3195 20.348V20.0956C27.3172 20.0956 26.4171 19.8632 25.616 19.4003L25.4897 19.6189ZM41.3249 21.5641L41.2513 21.6665L41.2534 21.668L41.3249 21.5641ZM39.9553 19.8383L40.0704 19.7865L39.9553 19.8383ZM39.7635 1.10183L39.6743 1.01259V1.01259L39.7635 1.10183ZM41.4071 1.10183L41.3137 1.18743L41.3218 1.19486L41.4071 1.10183ZM42.1741 19.1809L42.0654 19.2453L42.0685 19.25L42.1741 19.1809ZM44.749 20.2218L44.652 20.3027L44.6556 20.3067L44.749 20.2218ZM44.612 21.8654L44.69 21.9646L44.6909 21.9639L44.612 21.8654ZM43.352 22.0405C42.6083 22.0405 41.958 21.8462 41.3964 21.4601L41.2534 21.668C41.8606 22.0855 42.5616 22.2929 43.352 22.2929V22.0405ZM41.3986 21.4616C40.8342 21.0559 40.391 20.4991 40.0704 19.7865L39.8402 19.8901C40.177 20.6385 40.6469 21.2321 41.2513 21.6665L41.3986 21.4616ZM40.0704 19.7865C39.7502 19.0751 39.5884 18.2532 39.5884 17.3182H39.336C39.336 18.2824 39.5029 19.1406 39.8402 19.8901L40.0704 19.7865ZM39.5884 17.3182V1.92361H39.336V17.3182H39.5884ZM39.5884 1.92361C39.5884 1.60222 39.6806 1.36323 39.8528 1.19107L39.6743 1.01259C39.4447 1.24219 39.336 1.55105 39.336 1.92361H39.5884ZM39.8528 1.19107C40.0453 0.998517 40.2948 0.899319 40.6127 0.899319V0.646922C40.2367 0.646922 39.92 0.766863 39.6743 1.01259L39.8528 1.19107ZM40.6127 0.899319C40.9102 0.899319 41.1398 0.996959 41.3141 1.18711L41.5001 1.01655C41.2727 0.768421 40.9726 0.646922 40.6127 0.646922V0.899319ZM41.3218 1.19486C41.5105 1.36778 41.6096 1.60553 41.6096 1.92361H41.862C41.862 1.54773 41.742 1.23763 41.4924 1.0088L41.3218 1.19486ZM41.6096 1.92361V17.3182H41.862V1.92361H41.6096ZM41.6096 17.3182C41.6096 18.0828 41.7588 18.7276 42.0655 19.2452L42.2827 19.1166C42.005 18.6481 41.862 18.0511 41.862 17.3182H41.6096ZM42.0685 19.25C42.397 19.7524 42.8258 20.0193 43.352 20.0193V19.7669C42.9285 19.7669 42.5721 19.559 42.2797 19.1118L42.0685 19.25ZM43.352 20.0193H44.0368V19.7669H43.352V20.0193ZM44.0368 20.0193C44.2926 20.0193 44.4941 20.113 44.652 20.3026L44.8459 20.141C44.6387 19.8923 44.3654 19.7669 44.0368 19.7669V20.0193ZM44.6556 20.3067C44.8129 20.4797 44.8967 20.7119 44.8967 21.0162H45.1491C45.1491 20.6631 45.0504 20.3657 44.8424 20.1369L44.6556 20.3067ZM44.8967 21.0162C44.8967 21.3243 44.7776 21.5713 44.5332 21.7668L44.6909 21.9639C44.9943 21.7211 45.1491 21.402 45.1491 21.0162H44.8967ZM44.5341 21.7661C44.3064 21.945 43.9986 22.0405 43.5985 22.0405V22.2929C44.0385 22.2929 44.4063 22.1875 44.69 21.9646L44.5341 21.7661ZM43.5985 22.0405H43.352V22.2929H43.5985V22.0405ZM49.2163 21.5641L49.1427 21.6665L49.1448 21.668L49.2163 21.5641ZM47.8467 19.8383L47.9618 19.7865L47.8467 19.8383ZM47.655 1.10183L47.5657 1.01259V1.01259L47.655 1.10183ZM49.2985 1.10183L49.2051 1.18743L49.2132 1.19486L49.2985 1.10183ZM50.0655 19.1809L49.9568 19.2453L49.9599 19.25L50.0655 19.1809ZM52.6404 20.2218L52.5434 20.3027L52.547 20.3067L52.6404 20.2218ZM52.5034 21.8654L52.5814 21.9646L52.5823 21.9639L52.5034 21.8654ZM51.2434 22.0405C50.4997 22.0405 49.8494 21.8462 49.2878 21.4601L49.1448 21.668C49.752 22.0855 50.453 22.2929 51.2434 22.2929V22.0405ZM49.29 21.4616C48.7256 21.0559 48.2824 20.4991 47.9618 19.7865L47.7316 19.8901C48.0684 20.6385 48.5383 21.2321 49.1427 21.6665L49.29 21.4616ZM47.9618 19.7865C47.6416 19.0751 47.4798 18.2532 47.4798 17.3182H47.2274C47.2274 18.2824 47.3943 19.1406 47.7316 19.8901L47.9618 19.7865ZM47.4798 17.3182V1.92361H47.2274V17.3182H47.4798ZM47.4798 1.92361C47.4798 1.60222 47.572 1.36323 47.7442 1.19107L47.5657 1.01259C47.3361 1.24219 47.2274 1.55105 47.2274 1.92361H47.4798ZM47.7442 1.19107C47.9367 0.998517 48.1862 0.899319 48.5041 0.899319V0.646922C48.1281 0.646922 47.8114 0.766863 47.5657 1.01259L47.7442 1.19107ZM48.5041 0.899319C48.8016 0.899319 49.0312 0.996959 49.2055 1.18711L49.3915 1.01655C49.1641 0.768421 48.864 0.646922 48.5041 0.646922V0.899319ZM49.2132 1.19486C49.4019 1.36778 49.501 1.60553 49.501 1.92361H49.7534C49.7534 1.54773 49.6334 1.23763 49.3838 1.0088L49.2132 1.19486ZM49.501 1.92361V17.3182H49.7534V1.92361H49.501ZM49.501 17.3182C49.501 18.0828 49.6502 18.7276 49.9569 19.2452L50.1741 19.1166C49.8964 18.6481 49.7534 18.0511 49.7534 17.3182H49.501ZM49.9599 19.25C50.2884 19.7524 50.7172 20.0193 51.2434 20.0193V19.7669C50.8199 19.7669 50.4635 19.559 50.1711 19.1118L49.9599 19.25ZM51.2434 20.0193H51.9282V19.7669H51.2434V20.0193ZM51.9282 20.0193C52.184 20.0193 52.3855 20.113 52.5434 20.3026L52.7373 20.141C52.5301 19.8923 52.2568 19.7669 51.9282 19.7669V20.0193ZM52.547 20.3067C52.7043 20.4797 52.7881 20.7119 52.7881 21.0162H53.0405C53.0405 20.6631 52.9418 20.3657 52.7338 20.1369L52.547 20.3067ZM52.7881 21.0162C52.7881 21.3243 52.669 21.5713 52.4246 21.7668L52.5823 21.9639C52.8857 21.7211 53.0405 21.402 53.0405 21.0162H52.7881ZM52.4255 21.7661C52.1978 21.945 51.89 22.0405 51.4899 22.0405V22.2929C51.9299 22.2929 52.2977 22.1875 52.5814 21.9646L52.4255 21.7661ZM51.4899 22.0405H51.2434V22.2929H51.4899V22.0405ZM57.7303 21.3175L57.664 21.4249L57.6653 21.4257L57.7303 21.3175ZM55.128 18.5783L55.0177 18.6396L55.128 18.5783ZM55.1554 10.7714L55.0465 10.7075L55.0458 10.7088L55.1554 10.7714ZM57.8946 8.05953L57.9572 8.16911L57.9585 8.16835L57.8946 8.05953ZM65.6193 8.05953L65.5546 8.16792L65.5567 8.1691L65.6193 8.05953ZM68.3312 10.7714L68.2216 10.834L68.2224 10.8353L68.3312 10.7714ZM69.3721 14.6885L69.4285 14.8014L69.4993 14.766L69.4983 14.6869L69.3721 14.6885ZM68.4408 15.1542L68.3843 15.0413L68.3146 15.0762V15.1542H68.4408ZM67.5094 18.7974L67.4001 18.7344L67.3993 18.7358L67.5094 18.7974ZM65.0167 21.3723L65.0813 21.4807L65.0819 21.4804L65.0167 21.3723ZM64.4962 19.5096L64.5615 19.6176L64.5622 19.6172L64.4962 19.5096ZM66.3863 17.51L66.2764 17.4479L66.2754 17.4497L66.3863 17.51ZM66.3863 11.8671L66.2754 11.9274L66.277 11.9302L66.3863 11.8671ZM64.4962 9.86744L64.4291 9.97432L64.4302 9.975L64.4962 9.86744ZM59.0451 9.86744L58.9802 9.75922L58.9791 9.75988L59.0451 9.86744ZM57.1276 11.8671L57.2369 11.9302L57.2375 11.9292L57.1276 11.8671ZM57.1276 17.51L57.2375 17.4479L57.1276 17.51ZM59.0451 19.5096L58.9791 19.6172L58.982 19.6189L59.0451 19.5096ZM67.345 21.8654L67.2555 21.9549L67.2635 21.9617L67.345 21.8654ZM67.0163 16.4964L66.893 16.4695L66.8901 16.4828V16.4964H67.0163ZM67.5368 14.1133L67.5745 13.9929L67.4429 13.9516L67.4135 14.0864L67.5368 14.1133ZM69.3721 14.6885H69.4983V14.5958L69.4098 14.5681L69.3721 14.6885ZM69.0434 21.8654L69.1287 21.9585L69.1326 21.9546L69.0434 21.8654ZM61.4557 22.1775C60.0886 22.1775 58.8696 21.854 57.7952 21.2093L57.6653 21.4257C58.7823 22.0959 60.0469 22.4298 61.4557 22.4298V22.1775ZM57.7965 21.2101C56.7196 20.546 55.8672 19.649 55.2383 18.517L55.0177 18.6396C55.6671 19.8085 56.5495 20.7376 57.664 21.4249L57.7965 21.2101ZM55.2383 18.517C54.6105 17.387 54.2954 16.1119 54.2954 14.6885H54.043C54.043 16.1505 54.3671 17.4686 55.0177 18.6396L55.2383 18.517ZM54.2954 14.6885C54.2954 13.2472 54.6195 11.9635 55.2649 10.834L55.0458 10.7088C54.3764 11.8802 54.043 13.2079 54.043 14.6885H54.2954ZM55.2642 10.8353C55.9288 9.70367 56.826 8.81552 57.9572 8.1691L57.832 7.94996C56.6623 8.61839 55.7333 9.53814 55.0466 10.7075L55.2642 10.8353ZM57.9585 8.16835C59.0881 7.50497 60.3623 7.17221 61.7844 7.17221V6.91981C60.3211 6.91981 59.0021 7.26273 57.8307 7.95071L57.9585 8.16835ZM61.7844 7.17221C63.1879 7.17221 64.4435 7.50482 65.5546 8.1679L65.684 7.95116C64.5306 7.26288 63.2297 6.91981 61.7844 6.91981V7.17221ZM65.5567 8.1691C66.6876 8.81534 67.5754 9.70308 68.2216 10.834L68.4408 10.7088C67.7721 9.53873 66.852 8.61856 65.6819 7.94996L65.5567 8.1691ZM68.2224 10.8353C68.8859 11.9651 69.2279 13.249 69.2459 14.6901L69.4983 14.6869C69.4798 13.2062 69.1278 11.8787 68.44 10.7075L68.2224 10.8353ZM69.3157 14.5757L68.3843 15.0413L68.4972 15.2671L69.4285 14.8014L69.3157 14.5757ZM68.3146 15.1542C68.3146 16.4854 68.009 17.6778 67.4001 18.7344L67.6187 18.8604C68.2516 17.7622 68.5669 16.5257 68.5669 15.1542H68.3146ZM67.3993 18.7358C66.8073 19.7941 65.9919 20.6364 64.9515 21.2643L65.0819 21.4804C66.1598 20.8299 67.0062 19.9556 67.6195 18.859L67.3993 18.7358ZM64.952 21.2639C63.9326 21.872 62.7683 22.1775 61.4557 22.1775V22.4298C62.8092 22.4298 64.0189 22.1144 65.0813 21.4807L64.952 21.2639ZM61.7844 20.348C62.8273 20.348 63.7544 20.1056 64.5615 19.6176L64.4309 19.4016C63.6676 19.8632 62.7867 20.0956 61.7844 20.0956V20.348ZM64.5622 19.6172C65.3849 19.1124 66.0303 18.4294 66.4972 17.5702L66.2754 17.4497C65.8293 18.2706 65.2146 18.9207 64.4302 19.4021L64.5622 19.6172ZM66.4962 17.5721C66.9825 16.7116 67.2247 15.7494 67.2247 14.6885H66.9723C66.9723 15.7094 66.7397 16.6282 66.2764 17.4479L66.4962 17.5721ZM67.2247 14.6885C67.2247 13.6098 66.9827 12.6471 66.4956 11.804L66.277 11.9302C66.7395 12.7307 66.9723 13.6489 66.9723 14.6885H67.2247ZM66.4972 11.8068C66.0303 10.9477 65.3849 10.2647 64.5622 9.75988L64.4302 9.975C65.2146 10.4563 65.8293 11.1065 66.2754 11.9274L66.4972 11.8068ZM64.5633 9.76056C63.7559 9.25359 62.8282 9.00164 61.7844 9.00164V9.25404C62.7858 9.25404 63.666 9.49516 64.4291 9.97432L64.5633 9.76056ZM61.7844 9.00164C60.7582 9.00164 59.8225 9.25382 58.9802 9.75923L59.11 9.97565C59.9112 9.49493 60.8017 9.25404 61.7844 9.25404V9.00164ZM58.9791 9.75988C58.1569 10.2644 57.5028 10.9468 57.0178 11.805L57.2375 11.9292C57.702 11.1073 58.3263 10.4566 59.1111 9.975L58.9791 9.75988ZM57.0184 11.804C56.5312 12.6471 56.2892 13.6098 56.2892 14.6885H56.5416C56.5416 13.6489 56.7744 12.7307 57.2369 11.9302L57.0184 11.804ZM56.2892 14.6885C56.2892 15.7494 56.5314 16.7116 57.0178 17.5721L57.2375 17.4479C56.7742 16.6282 56.5416 15.7094 56.5416 14.6885H56.2892ZM57.0178 17.5721C57.5028 18.4303 58.1569 19.1126 58.9791 19.6172L59.1111 19.4021C58.3263 18.9204 57.702 18.2697 57.2375 17.4479L57.0178 17.5721ZM58.982 19.6189C59.8241 20.1054 60.7591 20.348 61.7844 20.348V20.0956C60.8008 20.0956 59.9097 19.8634 59.1082 19.4003L58.982 19.6189ZM68.1942 22.0405C67.8935 22.0405 67.6398 21.9495 67.4266 21.769L67.2635 21.9617C67.5251 22.183 67.8375 22.2929 68.1942 22.2929V22.0405ZM67.4343 21.7761C67.2417 21.5836 67.1425 21.3341 67.1425 21.0162H66.8901C66.8901 21.3923 67.0101 21.7089 67.2558 21.9546L67.4343 21.7761ZM67.1425 21.0162V16.4964H66.8901V21.0162H67.1425ZM67.1396 16.5234L67.6601 14.1402L67.4135 14.0864L66.893 16.4695L67.1396 16.5234ZM67.4991 14.2337L69.3344 14.8089L69.4098 14.5681L67.5745 13.9929L67.4991 14.2337ZM69.2459 14.6885V21.0162H69.4983V14.6885H69.2459ZM69.2459 21.0162C69.2459 21.3341 69.1467 21.5836 68.9541 21.7761L69.1326 21.9546C69.3783 21.7089 69.4983 21.3923 69.4983 21.0162H69.2459ZM68.9581 21.7723C68.7661 21.9484 68.5152 22.0405 68.1942 22.0405V22.2929C68.5671 22.2929 68.8824 22.1841 69.1287 21.9584L68.9581 21.7723ZM77.2004 21.3175L77.1357 21.4259L77.137 21.4267L77.2004 21.3175ZM74.4885 18.6057L74.3789 18.6683L74.3801 18.6703L74.4885 18.6057ZM73.475 14.7433H73.3488L73.3488 14.7449L73.475 14.7433ZM73.7763 1.10183L73.6871 1.01259V1.01259L73.7763 1.10183ZM75.4746 1.10183L75.3813 1.18743L75.3894 1.19486L75.4746 1.10183ZM75.8034 9.78526H75.6772V10.1708L75.9051 9.85989L75.8034 9.78526ZM78.1591 7.813L78.2164 7.92546L78.2181 7.92458L78.1591 7.813ZM85.1168 8.05953L85.0506 8.16696L85.0519 8.16775L85.1168 8.05953ZM87.6917 10.7714L87.5806 10.8313L87.5814 10.8327L87.6917 10.7714ZM87.6369 18.5783L87.5281 18.5144L87.5274 18.5157L87.6369 18.5783ZM84.9251 21.3175L84.9884 21.4267L84.989 21.4263L84.9251 21.3175ZM83.7746 19.4822L83.7096 19.374L83.7086 19.3747L83.7746 19.4822ZM85.6921 17.51L85.5822 17.4479L85.5817 17.4487L85.6921 17.51ZM85.6921 11.8397L85.5812 11.9L85.5822 11.9018L85.6921 11.8397ZM83.7746 9.86744L83.7085 9.97504L83.7114 9.97671L83.7746 9.86744ZM78.3235 9.86744L78.3877 9.97609L78.3884 9.97565L78.3235 9.86744ZM76.4334 11.8397L76.5443 11.9L76.4334 11.8397ZM76.4334 17.51L76.3225 17.5702L76.3231 17.5712L76.4334 17.51ZM78.3235 19.4822L78.2575 19.5898L78.2585 19.5904L78.3235 19.4822ZM81.0353 22.1775C79.6312 22.1775 78.375 21.8537 77.2637 21.2084L77.137 21.4267C78.2901 22.0962 79.5907 22.4298 81.0353 22.4298V22.1775ZM77.265 21.2092C76.1508 20.5442 75.2618 19.6552 74.5969 18.541L74.3801 18.6703C75.0665 19.8205 75.9855 20.7395 77.1357 21.4259L77.265 21.2092ZM74.5981 18.543C73.9521 17.4125 73.6192 16.1463 73.6012 14.7417L73.3488 14.7449C73.3673 16.1891 73.7101 17.4978 74.3789 18.6683L74.5981 18.543ZM73.6012 14.7433V1.951H73.3488V14.7433H73.6012ZM73.6012 1.951C73.6012 1.60923 73.6946 1.36204 73.8655 1.19107L73.6871 1.01259C73.4563 1.24338 73.3488 1.5623 73.3488 1.951H73.6012ZM73.8655 1.19107C74.0568 0.999783 74.3147 0.899319 74.6529 0.899319V0.646922C74.2606 0.646922 73.9341 0.765598 73.6871 1.01259L73.8655 1.19107ZM74.6529 0.899319C74.9709 0.899319 75.2087 0.99846 75.3816 1.18711L75.5677 1.01655C75.3388 0.76692 75.0287 0.646922 74.6529 0.646922V0.899319ZM75.3894 1.19486C75.5766 1.36652 75.6772 1.61243 75.6772 1.951H75.9296C75.9296 1.5591 75.8109 1.2389 75.5599 1.0088L75.3894 1.19486ZM75.6772 1.951V9.78526H75.9296V1.951H75.6772ZM75.9051 9.85989C76.4953 9.05507 77.2649 8.41016 78.2164 7.92545L78.1018 7.70055C77.1176 8.20197 76.3167 8.87191 75.7016 9.71063L75.9051 9.85989ZM78.2181 7.92458C79.1663 7.42365 80.2232 7.17221 81.3914 7.17221V6.91981C80.1856 6.91981 79.0877 7.17969 78.1002 7.70142L78.2181 7.92458ZM81.3914 7.17221C82.7578 7.17221 83.9763 7.50451 85.0506 8.16695L85.1831 7.95212C84.0659 7.26319 82.8008 6.91981 81.3914 6.91981V7.17221ZM85.0519 8.16775C86.1277 8.81323 86.9703 9.7003 87.5807 10.8313L87.8028 10.7115C87.1714 9.54151 86.2973 8.62068 85.1817 7.95132L85.0519 8.16775ZM87.5814 10.8327C88.2092 11.9627 88.5243 13.2378 88.5243 14.6611H88.7766C88.7766 13.1991 88.4526 11.8811 87.802 10.7101L87.5814 10.8327ZM88.5243 14.6611C88.5243 16.1018 88.1913 17.3851 87.5281 18.5144L87.7457 18.6422C88.4339 17.4705 88.7766 16.1423 88.7766 14.6611H88.5243ZM87.5274 18.5157C86.8809 19.6469 85.9928 20.5441 84.8612 21.2087L84.989 21.4263C86.1583 20.7396 87.0781 19.8106 87.7465 18.6409L87.5274 18.5157ZM84.8617 21.2084C83.7509 21.8534 82.4766 22.1775 81.0353 22.1775V22.4298C82.5159 22.4298 83.8348 22.0965 84.9884 21.4267L84.8617 21.2084ZM81.0353 20.348C82.0792 20.348 83.0155 20.0961 83.8406 19.5898L83.7086 19.3747C82.9266 19.8545 82.0367 20.0956 81.0353 20.0956V20.348ZM83.8395 19.5904C84.6799 19.0862 85.3349 18.4128 85.8024 17.5712L85.5817 17.4487C85.1362 18.2507 84.5128 18.8921 83.7096 19.374L83.8395 19.5904ZM85.8019 17.5721C86.2885 16.7113 86.5305 15.7399 86.5305 14.6611H86.2781C86.2781 15.7007 86.0453 16.6286 85.5822 17.4479L85.8019 17.5721ZM86.5305 14.6611C86.5305 13.6002 86.2883 12.6381 85.8019 11.7776L85.5822 11.9018C86.0454 12.7214 86.2781 13.6402 86.2781 14.6611H86.5305ZM85.8029 11.7794C85.3354 10.9191 84.6798 10.2447 83.8377 9.75817L83.7114 9.97671C84.5129 10.4398 85.1356 11.0802 85.5812 11.9L85.8029 11.7794ZM83.8406 9.75988C83.0155 9.2536 82.0792 9.00164 81.0353 9.00164V9.25404C82.0367 9.25404 82.9266 9.49515 83.7086 9.975L83.8406 9.75988ZM81.0353 9.00164C80.027 9.00164 79.1005 9.25404 78.2585 9.75923L78.3884 9.97565C79.19 9.49471 80.0714 9.25404 81.0353 9.25404V9.00164ZM78.2593 9.75879C77.4356 10.2455 76.7897 10.9199 76.3225 11.7794L76.5443 11.9C76.9902 11.0795 77.6043 10.439 78.3877 9.97609L78.2593 9.75879ZM76.3225 11.7794C75.855 12.6396 75.6224 13.6011 75.6224 14.6611H75.8748C75.8748 13.6394 76.0986 12.7199 76.5443 11.9L76.3225 11.7794ZM75.6224 14.6611C75.6224 15.739 75.8549 16.7098 76.3225 17.5702L76.5443 17.4497C76.0988 16.6301 75.8748 15.7016 75.8748 14.6611H75.6224ZM76.3231 17.5712C76.7902 18.4121 77.4355 19.0854 78.2575 19.5898L78.3895 19.3747C77.6044 18.8929 76.9897 18.2514 76.5437 17.4487L76.3231 17.5712ZM78.2585 19.5904C79.1005 20.0956 80.027 20.348 81.0353 20.348V20.0956C80.0714 20.0956 79.19 19.8549 78.3884 19.374L78.2585 19.5904Z" fill="#9A54BC" mask="url(#path-1-outside-1_1_1187)"/>
</g>
<defs>
<filter id="filter0_d_1_1187" x="1.19805e-05" y="-7.7635e-06" width="89.3735" height="23.3874" filterUnits="userSpaceOnUse" color-interpolation-filters="sRGB">
<feFlood flood-opacity="0" result="BackgroundImageFix"/>
<feColorMatrix in="SourceAlpha" type="matrix" values="0 0 0 0 0 0 0 0 0 0 0 0 0 0 0 0 0 0 127 0" result="hardAlpha"/>
<feOffset dy="0.223796"/>
<feGaussianBlur stdDeviation="0.298395"/>
<feComposite in2="hardAlpha" operator="out"/>
<feColorMatrix type="matrix" values="0 0 0 0 0.721569 0 0 0 0 0.847059 0 0 0 0 0.94902 0 0 0 0.25 0"/>
<feBlend mode="normal" in2="BackgroundImageFix" result="effect1_dropShadow_1_1187"/>
<feBlend mode="normal" in="SourceGraphic" in2="effect1_dropShadow_1_1187" result="shape"/>
</filter>
</defs>
</svg>
