<svg width="132" height="23" viewBox="0 0 132 23" fill="none" xmlns="http://www.w3.org/2000/svg">
<path d="M11.3833 16.3958L15.7165 19.147C16.2753 19.4995 16.9632 18.9751 16.7998 18.3303L15.5445 13.3952C15.5106 13.2584 15.516 13.1148 15.5601 12.981C15.6042 12.8471 15.6853 12.7284 15.7939 12.6386L19.68 9.3973C20.1873 8.97602 19.9293 8.12485 19.2673 8.08186L14.1947 7.75515C14.0563 7.7471 13.9232 7.6989 13.8118 7.61645C13.7003 7.534 13.6153 7.42087 13.5671 7.29088L11.6756 2.52777C11.6255 2.39013 11.5343 2.27122 11.4143 2.1872C11.2944 2.10318 11.1514 2.05811 11.005 2.05811C10.8585 2.05811 10.7156 2.10318 10.5956 2.1872C10.4756 2.27122 10.3844 2.39013 10.3344 2.52777L8.44287 7.29088C8.39467 7.42087 8.30964 7.534 8.19818 7.61645C8.08672 7.6989 7.95365 7.7471 7.81524 7.75515L2.74263 8.08186C2.08061 8.12485 1.82268 8.97602 2.32994 9.3973L6.21608 12.6386C6.3247 12.7284 6.40573 12.8471 6.44984 12.981C6.49396 13.1148 6.49935 13.2584 6.46541 13.3952L5.30473 17.9692C5.10698 18.743 5.93236 19.3706 6.59438 18.9493L10.6267 16.3958C10.7398 16.3239 10.871 16.2857 11.005 16.2857C11.139 16.2857 11.2702 16.3239 11.3833 16.3958Z" fill="#E13C5A" stroke="#E13C5A" stroke-width="1.37563" stroke-linecap="round" stroke-linejoin="round"/>
<path d="M38.6757 16.3958L43.0089 19.147C43.5678 19.4995 44.2556 18.9751 44.0922 18.3303L42.837 13.3952C42.803 13.2584 42.8084 13.1148 42.8525 12.981C42.8966 12.8471 42.9777 12.7284 43.0863 12.6386L46.9724 9.3973C47.4797 8.97602 47.2218 8.12485 46.5597 8.08186L41.4871 7.75515C41.3487 7.7471 41.2157 7.6989 41.1042 7.61645C40.9927 7.534 40.9077 7.42087 40.8595 7.29088L38.968 2.52777C38.9179 2.39013 38.8267 2.27122 38.7068 2.1872C38.5868 2.10318 38.4439 2.05811 38.2974 2.05811C38.1509 2.05811 38.008 2.10318 37.888 2.1872C37.7681 2.27122 37.6768 2.39013 37.6268 2.52777L35.7353 7.29088C35.6871 7.42087 35.6021 7.534 35.4906 7.61645C35.3791 7.6989 35.2461 7.7471 35.1077 7.75515L30.035 8.08186C29.373 8.12485 29.1151 8.97602 29.6224 9.3973L33.5085 12.6386C33.6171 12.7284 33.6982 12.8471 33.7423 12.981C33.7864 13.1148 33.7918 13.2584 33.7578 13.3952L32.5971 17.9692C32.3994 18.743 33.2248 19.3706 33.8868 18.9493L37.9191 16.3958C38.0322 16.3239 38.1634 16.2857 38.2974 16.2857C38.4314 16.2857 38.5626 16.3239 38.6757 16.3958Z" fill="#E13C5A" stroke="#E13C5A" stroke-width="1.37563" stroke-linecap="round" stroke-linejoin="round"/>
<path d="M65.968 16.3958L70.3013 19.147C70.8601 19.4995 71.5479 18.9751 71.3846 18.3303L70.1293 13.3952C70.0954 13.2584 70.1008 13.1148 70.1449 12.981C70.189 12.8471 70.27 12.7284 70.3786 12.6386L74.2648 9.3973C74.772 8.97602 74.5141 8.12485 73.8521 8.08186L68.7795 7.75515C68.6411 7.7471 68.508 7.6989 68.3966 7.61645C68.2851 7.534 68.2001 7.42087 68.1519 7.29088L66.2604 2.52777C66.2103 2.39013 66.1191 2.27122 65.9991 2.1872C65.8791 2.10318 65.7362 2.05811 65.5898 2.05811C65.4433 2.05811 65.3004 2.10318 65.1804 2.1872C65.0604 2.27122 64.9692 2.39013 64.9191 2.52777L63.0277 7.29088C62.9794 7.42087 62.8944 7.534 62.783 7.61645C62.6715 7.6989 62.5384 7.7471 62.4 7.75515L57.3274 8.08186C56.6654 8.12485 56.4075 8.97602 56.9147 9.3973L60.8009 12.6386C60.9095 12.7284 60.9905 12.8471 61.0346 12.981C61.0787 13.1148 61.0841 13.2584 61.0502 13.3952L59.8895 17.9692C59.6918 18.743 60.5171 19.3706 61.1792 18.9493L65.2115 16.3958C65.3245 16.3239 65.4558 16.2857 65.5898 16.2857C65.7238 16.2857 65.855 16.3239 65.968 16.3958Z" fill="#E13C5A" stroke="#E13C5A" stroke-width="1.37563" stroke-linecap="round" stroke-linejoin="round"/>
<path d="M93.2605 16.3958L97.5937 19.147C98.1525 19.4995 98.8403 18.9751 98.677 18.3303L97.4217 13.3952C97.3878 13.2584 97.3932 13.1148 97.4373 12.981C97.4814 12.8471 97.5624 12.7284 97.6711 12.6386L101.557 9.3973C102.064 8.97602 101.807 8.12485 101.145 8.08186L96.0719 7.75515C95.9335 7.7471 95.8004 7.6989 95.689 7.61645C95.5775 7.534 95.4925 7.42087 95.4443 7.29088L93.5528 2.52777C93.5027 2.39013 93.4115 2.27122 93.2915 2.1872C93.1716 2.10318 93.0286 2.05811 92.8822 2.05811C92.7357 2.05811 92.5928 2.10318 92.4728 2.1872C92.3528 2.27122 92.2616 2.39013 92.2116 2.52777L90.3201 7.29088C90.2719 7.42087 90.1868 7.534 90.0754 7.61645C89.9639 7.6989 89.8308 7.7471 89.6924 7.75515L84.6198 8.08186C83.9578 8.12485 83.6999 8.97602 84.2071 9.3973L88.0933 12.6386C88.2019 12.7284 88.2829 12.8471 88.327 12.981C88.3712 13.1148 88.3766 13.2584 88.3426 13.3952L87.1819 17.9692C86.9842 18.743 87.8096 19.3706 88.4716 18.9493L92.5039 16.3958C92.6169 16.3239 92.7482 16.2857 92.8822 16.2857C93.0162 16.2857 93.1474 16.3239 93.2605 16.3958Z" fill="#E13C5A" stroke="#E13C5A" stroke-width="1.37563" stroke-linecap="round" stroke-linejoin="round"/>
<path d="M120.553 16.3958L124.886 19.147C125.445 19.4995 126.133 18.9751 125.969 18.3303L124.714 13.3952C124.68 13.2584 124.686 13.1148 124.73 12.981C124.774 12.8471 124.855 12.7284 124.963 12.6386L128.85 9.3973C129.357 8.97602 129.099 8.12485 128.437 8.08186L123.364 7.75515C123.226 7.7471 123.093 7.6989 122.981 7.61645C122.87 7.534 122.785 7.42087 122.737 7.29088L120.845 2.52777C120.795 2.39013 120.704 2.27122 120.584 2.1872C120.464 2.10318 120.321 2.05811 120.175 2.05811C120.028 2.05811 119.885 2.10318 119.765 2.1872C119.645 2.27122 119.554 2.39013 119.504 2.52777L117.612 7.29088C117.564 7.42087 117.479 7.534 117.368 7.61645C117.256 7.6989 117.123 7.7471 116.985 7.75515L111.912 8.08186C111.25 8.12485 110.992 8.97602 111.499 9.3973L115.386 12.6386C115.494 12.7284 115.575 12.8471 115.619 12.981C115.664 13.1148 115.669 13.2584 115.635 13.3952L114.474 17.9692C114.277 18.743 115.102 19.3706 115.764 18.9493L119.796 16.3958C119.909 16.3239 120.041 16.2857 120.175 16.2857C120.309 16.2857 120.44 16.3239 120.553 16.3958V16.3958Z" stroke="#E13C5A" stroke-width="1.37563" stroke-linecap="round" stroke-linejoin="round"/>
</svg>
