<svg width="65" height="65" viewBox="0 0 65 65" fill="none" xmlns="http://www.w3.org/2000/svg">
<path d="M6.36123 28.5002C6.09726 27.5153 6.09723 26.4783 6.36112 25.4934C6.62502 24.5085 7.14353 23.6104 7.86456 22.8895L22.8891 7.86491C23.6101 7.14388 24.5082 6.62536 25.493 6.36147C26.4779 6.09757 27.5149 6.09761 28.4998 6.36157L42.5591 10.1287C42.7054 8.20266 43.3759 6.35332 44.4982 4.78102L27.5648 0.244223C26.3494 -0.0814146 25.0697 -0.0814079 23.8543 0.244245C22.6389 0.569898 21.5306 1.20973 20.6408 2.09942L2.09942 20.6408C1.20972 21.5306 0.569896 22.6389 0.244245 23.8543C-0.0814078 25.0697 -0.0814148 26.3494 0.244223 27.5648L4.95555 45.1476C6.4957 43.9714 8.32935 43.2409 10.2564 43.0361L6.36123 28.5002Z" fill="#18CDCA"/>
<path d="M54.6065 21.4704L58.6318 36.4922C58.8958 37.4772 58.8955 38.5141 58.6318 39.4988C58.3677 40.4839 57.8491 41.3819 57.1281 42.1029L42.1035 57.1278C41.3825 57.8488 40.4845 58.367 39.4995 58.6311C38.5148 58.8948 37.4775 58.8948 36.4928 58.6311L21.9569 54.736C21.7521 56.6631 21.0217 58.4968 19.8454 60.0368L37.4282 64.7481C38.6434 65.0739 39.9233 65.0739 41.1385 64.7481C42.3542 64.4223 43.4623 63.7828 44.3522 62.8929L62.8936 44.3515C63.7834 43.4617 64.423 42.3536 64.7487 41.1379C65.0745 39.9226 65.0745 38.6428 64.7487 37.4275L59.8597 19.1865C58.3522 20.417 56.5343 21.2074 54.6065 21.4704Z" fill="#18CDCA"/>
<path d="M5.37828 47.5725C4.18749 48.7631 3.37655 50.2805 3.04801 51.9319C2.71947 53.5837 2.88809 55.2958 3.53253 56.8516C4.17695 58.4072 5.26828 59.737 6.66845 60.6727C8.06866 61.6081 9.71483 62.1077 11.3989 62.1077C13.0828 62.1077 14.729 61.6081 16.1292 60.6727C17.5294 59.737 18.6208 58.4072 19.2652 56.8516C19.9096 55.2958 20.0782 53.5837 19.7497 51.9319C19.4211 50.2805 18.6102 48.7631 17.4194 47.5725C15.8214 45.9782 13.6562 45.0827 11.3989 45.0827C9.14148 45.0827 6.97628 45.9782 5.37828 47.5725Z" fill="#4F80E1"/>
<path d="M47.1322 4.93942C45.9416 6.13017 45.1303 7.64729 44.8021 9.29895C44.4735 10.9506 44.642 12.6626 45.2865 14.2184C45.931 15.7742 47.0222 17.104 48.4222 18.0396C49.8226 18.9752 51.4687 19.4745 53.1526 19.4745C54.8368 19.4745 56.4829 18.9752 57.8833 18.0396C59.2833 17.104 60.3745 15.7742 61.019 14.2184C61.6635 12.6626 61.832 10.9506 61.5034 9.29895C61.1752 7.64729 60.364 6.13017 59.1733 4.93942C57.5755 3.34501 55.4101 2.44958 53.1526 2.44958C50.8955 2.44958 48.73 3.34501 47.1322 4.93942Z" fill="#4F80E1"/>
<path d="M37.4941 55.0659C37.1521 55.0659 36.8119 55.0212 36.4815 54.9327L23.1757 51.3672C22.7321 48.9979 21.5826 46.818 19.8782 45.1137C18.1738 43.4094 15.994 42.2597 13.6247 41.8162L10.0596 28.5115C9.88287 27.8478 9.88336 27.1494 10.0611 26.4861C10.2389 25.8227 10.5876 25.2176 11.0725 24.7313L24.7295 11.074C25.2153 10.5881 25.8204 10.2388 26.484 10.0609C27.1477 9.88314 27.8464 9.88317 28.51 10.061L41.4428 13.5264C41.9558 15.881 43.1679 18.0257 44.9205 19.6797C46.6731 21.3336 48.8844 22.4197 51.2646 22.7957L54.9312 36.4829C55.1079 37.1468 55.1075 37.8453 54.9295 38.5084C54.7518 39.172 54.4031 39.777 53.918 40.2635L40.261 53.9205C39.8986 54.2846 39.467 54.5738 38.9921 54.7701C38.5172 54.9669 38.0081 55.0673 37.4941 55.0659Z" fill="#4F80E1"/>
</svg>
