<svg width="51" height="70" viewBox="0 0 51 70" fill="none" xmlns="http://www.w3.org/2000/svg">
<path d="M42.3191 5.6813H38.9115C37.6829 5.6813 36.6873 6.67712 36.6873 7.90551V20.2918C36.6873 21.5202 37.6829 22.516 38.9115 22.516H42.3191C43.5476 22.516 44.5433 21.5202 44.5433 20.2918V7.90551C44.5433 6.67712 43.5476 5.6813 42.3191 5.6813Z" fill="#41529F"/>
<path d="M29.5771 68.8685V57.1343H44.0217L31.4932 69.6631C31.3362 69.8203 31.136 69.9271 30.9182 69.9703C30.7004 70.0135 30.4747 69.9914 30.2695 69.9064C30.0644 69.8213 29.8891 69.6771 29.7658 69.4923C29.6426 69.3079 29.5769 69.0906 29.5771 68.8685Z" fill="#41529F"/>
<path d="M44.7955 56.4051H29.5771V57.8116H43.316L44.7955 56.4051Z" fill="#324293"/>
<path d="M47.9242 21.6626L27.137 0.873429C26.5748 0.314034 25.814 0 25.0209 0C24.2279 0 23.4671 0.314034 22.9049 0.873429L2.11801 21.6626C0.849537 23.0733 0.102115 24.8758 0 26.7702V30.4321C11.3566 38.8814 25.1397 43.4341 39.2946 43.4113C42.8945 43.412 46.4885 43.1194 50.0409 42.5365V26.7702C49.9376 24.8763 49.191 23.0743 47.9242 21.6626Z" fill="#41529F"/>
<path d="M39.2954 46.7783C25.1405 46.8007 11.3574 42.2481 0.000732422 33.7991V53.5799C0.00330119 54.3729 0.319418 55.1325 0.880077 55.693C1.44073 56.2538 2.20041 56.5698 2.99329 56.5724H47.0494C47.8421 56.5698 48.6017 56.2535 49.1626 55.693C49.7231 55.1322 50.0391 54.3726 50.0416 53.5799V45.9034C46.4892 46.4864 42.8952 46.779 39.2954 46.7783Z" fill="#41529F"/>
</svg>
