<svg width="70" height="70" viewBox="0 0 70 70" fill="none" xmlns="http://www.w3.org/2000/svg">
<path d="M43.0735 16.1513C34.1536 16.1513 16.2861 8.92035 16.2861 0H16.154C16.154 7.13943 18.99 13.9864 24.0383 19.0349C29.0865 24.0833 35.9334 26.9196 43.0729 26.9199C47.3565 26.9199 51.4648 28.6215 54.494 31.6506C57.5231 34.6796 59.2248 38.7879 59.2248 43.0715C59.2258 47.3551 57.5248 51.4641 54.4963 54.4936C51.4678 57.5235 47.3599 59.2258 43.0762 59.2268C38.7923 59.2275 34.6836 57.5265 31.6539 54.498C28.6243 51.4695 26.9217 47.3615 26.9209 43.0779C26.9208 39.5427 26.2244 36.0421 24.8714 32.7761C23.5185 29.51 21.5355 26.5424 19.0356 24.0427C16.5358 21.5431 13.5681 19.5602 10.3019 18.2075C7.03582 16.8548 3.53519 16.1586 0 16.1587V16.2897C8.91867 16.2897 16.1497 34.1496 16.153 43.0712H16.1513C16.1513 48.3956 17.73 53.6002 20.6879 58.0272C23.6458 62.4542 27.85 65.9046 32.7689 67.9421C37.6879 69.98 43.1005 70.5133 48.3226 69.4746C53.5444 68.4361 58.3412 65.8723 62.1062 62.1079C65.871 58.3432 68.4351 53.5467 69.4742 48.3246C70.5133 43.1028 69.9803 37.6902 67.9432 32.7711C65.906 27.852 62.4559 23.6475 58.0292 20.6892C53.6022 17.7309 48.3976 16.1517 43.0735 16.1513Z" fill="url(#paint0_linear_1_1130)"/>
<defs>
<linearGradient id="paint0_linear_1_1130" x1="55.7834" y1="60.5429" x2="15.1182" y2="4.68945" gradientUnits="userSpaceOnUse">
<stop offset="0.295" stop-color="#E73959"/>
<stop offset="0.384" stop-color="#E73D58"/>
<stop offset="0.477" stop-color="#E74955"/>
<stop offset="0.571" stop-color="#E95E51"/>
<stop offset="0.666" stop-color="#EA7B4B"/>
<stop offset="0.761" stop-color="#EDA044"/>
<stop offset="0.857" stop-color="#EFCE3B"/>
<stop offset="0.868" stop-color="#F0D43A"/>
</linearGradient>
</defs>
</svg>
