<svg width="115" height="58" viewBox="0 0 115 58" fill="none" xmlns="http://www.w3.org/2000/svg">
<path d="M24.0328 41.3642C24.576 41.3642 25.1139 41.2573 25.6158 41.0495C26.1176 40.8416 26.5736 40.5369 26.9577 40.1529C27.3419 39.7688 27.6466 39.3128 27.8545 38.811C28.0624 38.3091 28.1694 37.7712 28.1694 37.228C28.1694 29.5486 31.22 22.1837 36.6502 16.7536C42.0802 11.3234 49.4453 8.27275 57.1246 8.27275C64.804 8.27275 72.169 11.3234 77.599 16.7536C83.0294 22.1837 86.0799 29.5486 86.0799 37.228C86.0906 38.3179 86.5312 39.3594 87.3059 40.1263C88.0802 40.8931 89.1262 41.3233 90.2165 41.3233C91.3062 41.3233 92.3523 40.8931 93.1265 40.1263C93.9013 39.3594 94.3419 38.3179 94.3526 37.228C94.3526 32.3391 93.3896 27.4982 91.5189 22.9815C89.6478 18.4648 86.9058 14.3608 83.4489 10.9038C79.9917 7.44688 75.8877 4.70468 71.3712 2.83381C66.8543 0.962929 62.0136 0 57.1246 0C52.2356 0 47.395 0.962929 42.878 2.83381C38.3614 4.70468 34.2574 7.44688 30.8004 10.9038C27.3435 14.3608 24.6013 18.4648 22.7304 22.9815C20.8595 27.4982 19.8966 32.3391 19.8966 37.228C19.8966 38.325 20.3324 39.377 21.1081 40.1527C21.8838 40.9284 22.9358 41.3642 24.0328 41.3642Z" fill="url(#paint0_linear_1_1146)"/>
<path d="M110.071 49.637H73.657C76.3532 46.0624 77.8093 41.7057 77.8047 37.228C77.8047 31.7427 75.6255 26.4821 71.7471 22.6034C67.8682 18.7248 62.6075 16.5457 57.1222 16.5457C51.6373 16.5457 46.3767 18.7248 42.4978 22.6034C38.6191 26.4821 36.4401 31.7427 36.4401 37.228C36.4401 38.3251 36.8759 39.3773 37.6517 40.1531C38.4275 40.9288 39.4796 41.3646 40.5767 41.3646C41.6739 41.3646 42.7261 40.9288 43.5017 40.1531C44.2776 39.3773 44.7133 38.3251 44.7133 37.228C44.7133 34.7737 45.4409 32.3744 46.8045 30.3337C48.1681 28.2929 50.1061 26.7023 52.3736 25.763C54.6412 24.8237 57.1363 24.5779 59.5434 25.0567C61.9505 25.5355 64.1619 26.7173 65.8971 28.4528C67.6328 30.1882 68.8147 32.3993 69.2937 34.8065C69.7723 37.2137 69.5266 39.7088 68.5875 41.9762C67.6481 44.2438 66.0578 46.1822 64.0169 47.5458C61.9761 48.9093 59.5768 49.637 57.1226 49.637H4.17792C3.63124 49.6316 3.0889 49.7344 2.58226 49.9401C2.07562 50.1453 1.61473 50.4493 1.22623 50.8337C0.837726 51.2186 0.529314 51.6761 0.318841 52.1808C0.108367 52.6854 0 53.2268 0 53.7735C0 54.3199 0.108367 54.8613 0.318841 55.3659C0.529314 55.8705 0.837726 56.3281 1.22623 56.713C1.61473 57.0974 2.07562 57.4014 2.58226 57.6066C3.0889 57.8123 3.63124 57.9151 4.17792 57.9097H110.071C111.161 57.899 112.203 57.4584 112.97 56.6837C113.736 55.9094 114.167 54.8633 114.167 53.7735C114.167 52.6833 113.736 51.6373 112.97 50.863C112.203 50.0883 111.161 49.6477 110.071 49.637Z" fill="url(#paint1_linear_1_1146)"/>
<defs>
<linearGradient id="paint0_linear_1_1146" x1="19.8966" y1="20.6821" x2="94.3526" y2="20.6821" gradientUnits="userSpaceOnUse">
<stop stop-color="#DD1B60"/>
<stop offset="0.243" stop-color="#DE1D5B"/>
<stop offset="0.495" stop-color="#E2254F"/>
<stop offset="0.751" stop-color="#EA313A"/>
<stop offset="1" stop-color="#F4431F"/>
</linearGradient>
<linearGradient id="paint1_linear_1_1146" x1="0" y1="37.2278" x2="114.167" y2="37.2278" gradientUnits="userSpaceOnUse">
<stop stop-color="#DD1B60"/>
<stop offset="0.243" stop-color="#DE1D5B"/>
<stop offset="0.495" stop-color="#E2254F"/>
<stop offset="0.751" stop-color="#EA313A"/>
<stop offset="1" stop-color="#F4431F"/>
</linearGradient>
</defs>
</svg>
