<svg width="70" height="70" viewBox="0 0 70 70" fill="none" xmlns="http://www.w3.org/2000/svg">
<path d="M59.0863 59.6891C65.6178 53.1326 69.2794 44.2517 69.2667 34.9973C69.2597 34.4261 69.0281 33.8806 68.6217 33.4792C68.2152 33.0775 67.6672 32.8526 67.096 32.8526C66.5245 32.8526 65.9764 33.0775 65.5699 33.4792C65.1635 33.8806 64.9319 34.4261 64.9249 34.9973C64.9341 43.1074 61.7237 50.89 55.9991 56.6348C53.2201 59.4879 49.8978 61.7556 46.228 63.3041C42.5585 64.8523 38.6159 65.65 34.633 65.65C30.6502 65.65 26.7076 64.8523 23.038 63.3041C19.3684 61.7556 16.0461 59.4879 13.267 56.6348C7.5501 50.8843 4.34122 43.1049 4.34122 34.9961C4.34122 26.887 7.5501 19.1077 13.267 13.357C16.0299 10.5258 19.3273 8.27126 22.968 6.72404C26.6088 5.17685 30.5204 4.36774 34.4762 4.34366C35.3208 4.37011 36.1217 4.72553 36.7081 5.33407C37.2945 5.94258 37.6198 6.75613 37.6148 7.60117C37.61 8.4462 37.2752 9.25588 36.6818 9.85758C36.0884 10.4592 35.2834 10.8053 34.4385 10.8219C34.3603 10.8221 34.282 10.8264 34.2044 10.8349C28.186 11.0287 22.4756 13.5417 18.2671 17.8483C13.8226 22.3224 11.3282 28.3728 11.3282 34.6793C11.3282 40.9858 13.8226 47.0361 18.2671 51.5103C20.4384 53.7345 23.0326 55.502 25.8971 56.7086C28.7615 57.9153 31.8385 58.5369 34.9467 58.5369C38.0548 58.5369 41.1319 57.9153 43.9964 56.7086C46.8606 55.502 49.4549 53.7345 51.6262 51.5103C56.0776 47.0408 58.5731 40.9874 58.5642 34.6793C58.5734 33.6858 58.3855 32.6999 58.0117 31.7793C57.6376 30.8588 57.085 30.0214 56.3855 29.3155C55.6861 28.6097 54.8538 28.0494 53.9367 27.667C53.0195 27.2846 52.0359 27.0878 51.0421 27.0878C50.0483 27.0878 49.0646 27.2846 48.1475 27.667C47.2303 28.0494 46.3981 28.6097 45.6986 29.3155C44.9991 30.0214 44.4466 30.8588 44.0724 31.7793C43.6986 32.6999 43.5108 33.6858 43.5199 34.6793C43.5199 34.7426 43.5241 34.8022 43.5291 34.863C43.5241 34.9238 43.5199 34.9847 43.5199 35.0467C43.5342 36.779 43.0333 38.4764 42.081 39.9239C41.129 41.371 39.7684 42.5027 38.172 43.1755C36.5757 43.8481 34.8152 44.0315 33.1146 43.7024C31.4137 43.3729 29.8491 42.5461 28.6191 41.3261C27.3892 40.1061 26.5493 38.5484 26.2061 36.8503C25.8629 35.1522 26.0319 33.3905 26.6915 31.7888C27.3511 30.1868 28.4718 28.8169 29.9112 27.853C31.3506 26.889 33.044 26.3744 34.7762 26.3743C35.0636 26.3778 35.3487 26.3242 35.6151 26.2167C35.8816 26.1091 36.1239 25.9498 36.3282 25.7478C36.5326 25.5459 36.6951 25.3054 36.8057 25.0403C36.9165 24.7752 36.9736 24.4907 36.9736 24.2034C36.9736 23.9161 36.9165 23.6317 36.8057 23.3666C36.6951 23.1014 36.5326 22.861 36.3282 22.659C36.1239 22.4571 35.8816 22.2978 35.6151 22.1902C35.3487 22.0827 35.0636 22.0291 34.7762 22.0326C32.2054 22.0468 29.6962 22.8223 27.5655 24.2609C25.4348 25.6997 23.7779 27.7372 22.804 30.1166C21.83 32.4959 21.5826 35.1104 22.0929 37.6303C22.6033 40.1501 23.8484 42.4621 25.6714 44.2752C27.4944 46.0879 29.8135 47.3203 32.3362 47.8167C34.8586 48.3128 37.4719 48.0508 39.8457 47.0636C42.2195 46.0765 44.248 44.4085 45.6748 42.2698C47.1017 40.1311 47.863 37.6176 47.863 35.0467C47.863 34.9834 47.8588 34.9238 47.8538 34.863C47.8588 34.8022 47.863 34.7414 47.863 34.6793C47.8544 34.2563 47.9304 33.8359 48.0866 33.4425C48.2425 33.0493 48.4757 32.691 48.7716 32.3891C49.0678 32.0869 49.4213 31.8467 49.8113 31.683C50.2013 31.5192 50.6204 31.4348 51.0433 31.4348C51.4663 31.4348 51.8854 31.5192 52.2754 31.683C52.6654 31.8467 53.0189 32.0869 53.3151 32.3891C53.611 32.691 53.8442 33.0493 54 33.4425C54.1562 33.8359 54.2323 34.2563 54.2237 34.6793C54.2294 39.8438 52.1851 44.7991 48.5397 48.4573C46.7722 50.2732 44.6588 51.7162 42.3243 52.7018C39.9898 53.6873 37.4814 54.1948 34.9473 54.1948C32.4135 54.1948 29.9052 53.6873 27.5707 52.7018C25.2362 51.7162 23.1228 50.2732 21.3553 48.4573C17.7148 44.796 15.6713 39.8425 15.6713 34.6793C15.6713 29.516 17.7148 24.5626 21.3553 20.9013C23.1242 19.0877 25.2376 17.6459 27.5715 16.6607C29.9054 15.6753 32.4126 15.1664 34.946 15.1637C35.1409 15.1631 35.3348 15.1363 35.5226 15.0838C37.3708 14.8004 39.0489 13.8446 40.2357 12.3998C41.4224 10.9549 42.0338 9.12286 41.9527 7.25496C41.8716 5.38704 41.1034 3.61486 39.7959 2.27837C38.4885 0.941861 36.7337 0.135151 34.8681 0.012989C34.7902 0.00450029 34.7116 0.000164451 34.633 0C34.5893 0 34.5459 0 34.5022 0C34.4807 0 34.4598 0 34.4388 0C34.4179 0 34.3964 0.00253267 34.3755 0.00316627C29.8623 0.0386593 25.4009 0.967161 21.2483 2.73514C17.0956 4.5031 13.3341 7.07559 10.1804 10.3043C3.65972 16.8677 0 25.744 0 34.9961C0 44.2479 3.65972 53.124 10.1804 59.6875C13.3632 62.949 17.1663 65.5411 21.3659 67.3104C25.5654 69.08 30.0765 69.9918 34.6337 69.9918C39.1909 69.9918 43.7018 69.08 47.9016 67.3104C52.1011 65.5411 55.904 62.949 59.0869 59.6875L59.0863 59.6891Z" fill="url(#paint0_linear_1_1127)"/>
<defs>
<linearGradient id="paint0_linear_1_1127" x1="10.0437" y1="59.563" x2="54.0609" y2="16.4865" gradientUnits="userSpaceOnUse">
<stop stop-color="#41287B"/>
<stop offset="0.123" stop-color="#462779"/>
<stop offset="0.284" stop-color="#572775"/>
<stop offset="0.465" stop-color="#72266E"/>
<stop offset="0.663" stop-color="#982565"/>
<stop offset="0.87" stop-color="#C82459"/>
<stop offset="0.99" stop-color="#E72452"/>
</linearGradient>
</defs>
</svg>
