<svg width="633" height="159" viewBox="0 0 633 159" fill="none" xmlns="http://www.w3.org/2000/svg">
<path d="M81.203 107.486L81.288 107.283L81.203 107.486ZM216.785 88.1169L216.729 88.3299L216.785 88.1169ZM321.552 155.027L321.612 155.239L321.552 155.027ZM413.994 126.855L413.891 126.66L413.994 126.855ZM593.596 133.017L593.448 132.854L593.596 133.017ZM632.333 88.1169L632.115 88.142L632.333 88.1169ZM562.649 46.5628C562.552 46.6363 562.533 46.7744 562.607 46.8712L563.804 48.4489C563.878 48.5457 564.016 48.5646 564.113 48.4911C564.21 48.4176 564.228 48.2795 564.155 48.1827L563.09 46.7803L564.493 45.7156C564.589 45.6421 564.608 45.504 564.535 45.4072C564.461 45.3104 564.323 45.2915 564.226 45.365L562.649 46.5628ZM0.206177 0.0769043C-7.18236e-06 0.153925 -5.67734e-06 0.153929 -3.68059e-06 0.153934C-2.33948e-06 0.153938 1.63913e-07 0.153945 2.84612e-06 0.153952C8.22544e-06 0.153966 1.56164e-05 0.153986 2.5034e-05 0.154011C4.3869e-05 0.154062 7.08103e-05 0.154134 0.000105843 0.154227C0.000175923 0.154415 0.000278383 0.154689 0.000413224 0.15505C0.000682905 0.155771 0.00108208 0.156837 0.00161062 0.158249C0.00266771 0.161071 0.00424227 0.165272 0.00633323 0.170842C0.0105152 0.181981 0.0167627 0.198593 0.0250675 0.220601C0.041677 0.264617 0.0665154 0.330215 0.0995149 0.416768C0.165514 0.589874 0.264158 0.846803 0.394906 1.18254L0.805099 1.0228C0.67474 0.688059 0.576471 0.432105 0.510834 0.259948C0.478015 0.173869 0.453355 0.10874 0.43692 0.0651872C0.428703 0.0434108 0.422542 0.0270284 0.418446 0.0161184C0.416398 0.0106633 0.414866 0.0065764 0.413851 0.00386734C0.413344 0.0025128 0.412966 0.00150274 0.412718 0.000838369C0.412593 0.000506185 0.412502 0.00026042 0.412442 0.000101231C0.412412 2.16439e-05 0.412391 -3.63067e-05 0.412377 -7.2591e-05C0.41237 -9.07332e-05 0.412366 -0.000103466 0.412363 -0.000110775C0.412361 -0.000114426 0.412361 -0.000115842 0.41236 -0.000117674C0.41236 -0.000117734 0.412361 -0.000116438 0.206177 0.0769043ZM1.19665 3.2047C1.44083 3.81119 1.72165 4.50115 2.03842 5.26822L2.44529 5.1002C2.12904 4.33437 1.84871 3.64562 1.60499 3.04029L1.19665 3.2047ZM2.89278 7.31438C3.16485 7.95907 3.4555 8.64153 3.76446 9.35933L4.1688 9.18529C3.86025 8.46847 3.57002 7.78698 3.29835 7.14323L2.89278 7.31438ZM4.6589 11.4178C4.94442 12.0688 5.24251 12.7428 5.55303 13.4386L5.95501 13.2591C5.64488 12.5643 5.34718 11.8911 5.06204 11.241L4.6589 11.4178ZM6.4596 15.4525C6.76227 16.1192 7.07505 16.8026 7.39783 17.5018L7.79749 17.3173C7.47511 16.619 7.16272 15.9364 6.86043 15.2705L6.4596 15.4525ZM8.32087 19.4851C8.63165 20.1476 8.95063 20.8222 9.27773 21.5083L9.67508 21.3188C9.34838 20.6336 9.02979 19.9598 8.71939 19.2981L8.32087 19.4851ZM10.2331 23.4963C10.5523 24.1554 10.8786 24.8238 11.2117 25.5008L11.6067 25.3065C11.2739 24.6303 10.9481 23.9627 10.6293 23.3044L10.2331 23.4963ZM12.1939 27.4813C12.5223 28.1382 12.8568 28.8024 13.1974 29.4731L13.5899 29.2738C13.2497 28.6039 12.9156 27.9406 12.5877 27.2845L12.1939 27.4813ZM14.2039 31.4397C14.542 32.0952 14.8856 32.7563 15.2347 33.4225L15.6246 33.2182C15.2759 32.5528 14.9327 31.8926 14.5951 31.2379L14.2039 31.4397ZM16.2645 35.3721C16.6127 36.0262 16.966 36.6846 17.3243 37.347L17.7115 37.1375C17.3536 36.476 17.0008 35.8184 16.6531 35.1653L16.2645 35.3721ZM18.3776 39.2783C18.7334 39.9256 19.0939 40.5761 19.459 41.2296L19.8433 41.0148C19.4787 40.3623 19.1187 39.7126 18.7634 39.0663L18.3776 39.2783ZM20.5451 43.1573C20.9087 43.7974 21.2767 44.4399 21.6489 45.0845L22.0301 44.8643C21.6584 44.2207 21.2909 43.5791 20.9278 42.9399L20.5451 43.1573ZM22.7686 47.0067C23.1406 47.64 23.5167 48.2749 23.8969 48.911L24.2747 48.6852C23.8952 48.05 23.5196 47.4161 23.1482 46.7838L22.7686 47.0067ZM25.0494 50.8227C25.4306 51.4497 25.8158 52.0775 26.2048 52.7059L26.5791 52.4742C26.1907 51.8468 25.8062 51.22 25.4255 50.594L25.0494 50.8227ZM27.3827 54.5916C27.7762 55.216 28.1735 55.8406 28.5746 56.4652L28.945 56.2273C28.5446 55.6038 28.148 54.9802 27.755 54.3568L27.3827 54.5916ZM29.7807 58.326C30.1862 58.9458 30.5954 59.5652 31.0081 60.1839L31.3743 59.9397C30.9623 59.322 30.5539 58.7037 30.149 58.085L29.7807 58.326ZM32.2455 62.0209C32.6615 62.6323 33.081 63.2428 33.504 63.852L33.8656 63.601C33.4434 62.9929 33.0247 62.3836 32.6095 61.7733L32.2455 62.0209ZM34.7794 65.6703C35.2068 66.2733 35.6376 66.8748 36.0718 67.4745L36.4284 67.2163C35.9951 66.6179 35.5651 66.0176 35.1385 65.4157L34.7794 65.6703ZM37.3844 69.2677C37.8245 69.8624 38.2679 70.4549 38.7146 71.045L39.0656 70.7793C38.6199 70.1905 38.1774 69.5992 37.7383 69.0058L37.3844 69.2677ZM40.0646 72.8079C40.5182 73.3934 40.9751 73.9762 41.4353 74.556L41.7801 74.2824C41.321 73.7039 40.8652 73.1225 40.4126 72.5383L40.0646 72.8079ZM42.8266 76.2877C43.2936 76.8618 43.7638 77.4325 44.2372 77.9997L44.5751 77.7176C44.103 77.1519 43.6339 76.5826 43.1681 76.0099L42.8266 76.2877ZM45.6739 79.6983C46.156 80.2608 46.6414 80.8194 47.1299 81.3737L47.4602 81.0827C46.973 80.5299 46.489 79.9728 46.0081 79.4118L45.6739 79.6983ZM48.6102 83.0299C49.1091 83.5799 49.6111 84.1254 50.1162 84.666L50.4379 84.3655C49.9342 83.8265 49.4337 83.2826 48.9363 82.7342L48.6102 83.0299ZM51.641 86.2728C52.1578 86.8088 52.6777 87.3396 53.2008 87.8647L53.5127 87.5541C52.9913 87.0307 52.4731 86.5016 51.9579 85.9672L51.641 86.2728ZM54.7802 89.4237C55.3133 89.9409 55.8495 90.4522 56.3889 90.957L56.6897 90.6357C56.1523 90.1326 55.6179 89.6232 55.0867 89.1078L54.7802 89.4237ZM58.0273 92.4623C58.5772 92.9579 59.1302 93.4467 59.6863 93.9285L59.9745 93.5957C59.4207 93.1159 58.8698 92.629 58.3221 92.1353L58.0273 92.4623ZM61.3882 95.3723C61.9587 95.846 62.5323 96.3121 63.1091 96.7702L63.3828 96.4255C62.8087 95.9694 62.2375 95.5054 61.6694 95.0336L61.3882 95.3723ZM64.8686 98.1353C65.4615 98.5844 66.0576 99.0248 66.6569 99.4563L66.9141 99.099C66.3178 98.6697 65.7245 98.2314 65.1344 97.7844L64.8686 98.1353ZM68.4744 100.73C69.0907 101.151 69.7102 101.561 70.3329 101.962L70.5711 101.592C69.9518 101.193 69.3355 100.785 68.7225 100.367L68.4744 100.73ZM72.2109 103.133C72.8509 103.52 73.4942 103.895 74.1407 104.26L74.357 103.877C73.7143 103.514 73.0748 103.141 72.4385 102.756L72.2109 103.133ZM76.0899 105.32C76.7506 105.666 77.4145 105.999 78.0816 106.321L78.2728 105.924C77.6101 105.605 76.9505 105.273 76.2941 104.93L76.0899 105.32ZM80.1011 107.252C80.4392 107.401 80.7782 107.546 81.1179 107.689L81.288 107.283C80.9507 107.141 80.6142 106.997 80.2784 106.849L80.1011 107.252ZM81.1179 107.689C81.4653 107.834 81.8119 107.976 82.1578 108.114L82.3211 107.705C81.9775 107.568 81.6331 107.427 81.288 107.283L81.1179 107.689ZM84.2247 108.901C84.9191 109.151 85.6107 109.388 86.2996 109.61L86.4349 109.191C85.7508 108.971 85.064 108.736 84.3742 108.487L84.2247 108.901ZM88.4229 110.255C89.1315 110.456 89.8372 110.642 90.5402 110.815L90.645 110.387C89.9472 110.216 89.2466 110.031 88.5432 109.831L88.4229 110.255ZM92.7067 111.303C93.4277 111.452 94.146 111.586 94.8615 111.705L94.9341 111.271C94.224 111.152 93.5111 111.019 92.7955 110.872L92.7067 111.303ZM97.0568 112.03C97.7871 112.123 98.5147 112.203 99.2396 112.268L99.2792 111.83C98.5597 111.765 97.8377 111.686 97.1128 111.593L97.0568 112.03ZM101.45 112.426C102.185 112.464 102.918 112.489 103.648 112.5L103.655 112.06C102.93 112.049 102.203 112.024 101.473 111.986L101.45 112.426ZM105.86 112.494C106.596 112.478 107.329 112.45 108.06 112.409L108.036 111.969C107.31 112.01 106.581 112.038 105.85 112.054L105.86 112.494ZM110.263 112.247C110.996 112.181 111.726 112.102 112.455 112.013L112.401 111.576C111.677 111.665 110.951 111.743 110.223 111.809L110.263 112.247ZM114.64 111.708C115.366 111.596 116.091 111.472 116.813 111.339L116.733 110.906C116.015 111.039 115.294 111.162 114.572 111.273L114.64 111.708ZM118.976 110.907C119.694 110.754 120.41 110.591 121.125 110.419L121.022 109.991C120.31 110.162 119.598 110.324 118.884 110.477L118.976 110.907ZM123.262 109.877C123.971 109.688 124.678 109.491 125.384 109.287L125.262 108.864C124.558 109.068 123.854 109.264 123.148 109.452L123.262 109.877ZM127.495 108.652C128.195 108.434 128.893 108.209 129.591 107.978L129.453 107.56C128.757 107.79 128.061 108.014 127.364 108.232L127.495 108.652ZM131.677 107.266C132.369 107.025 133.059 106.777 133.749 106.524L133.598 106.111C132.91 106.363 132.221 106.61 131.532 106.851L131.677 107.266ZM135.814 105.753C136.498 105.492 137.182 105.228 137.865 104.959L137.704 104.549C137.022 104.817 136.34 105.082 135.657 105.342L135.814 105.753ZM139.911 104.142C140.59 103.868 141.269 103.59 141.947 103.31L141.779 102.903C141.101 103.183 140.424 103.46 139.746 103.734L139.911 104.142ZM143.98 102.463C144.655 102.18 145.33 101.894 146.005 101.607L145.832 101.202C145.158 101.489 144.484 101.774 143.809 102.057L143.98 102.463ZM148.029 100.742C148.702 100.454 149.375 100.164 150.049 99.8746L149.875 99.4703C149.202 99.7599 148.529 100.049 147.856 100.338L148.029 100.742ZM152.07 99.0053C152.743 98.7161 153.416 98.4272 154.09 98.139L153.917 97.7343C153.243 98.0226 152.569 98.3116 151.897 98.6008L152.07 99.0053ZM156.114 97.2774C156.788 96.9917 157.463 96.7073 158.139 96.4248L157.969 96.0186C157.293 96.3015 156.617 96.5862 155.942 96.8721L156.114 97.2774ZM160.17 95.5834C160.847 95.3052 161.526 95.0295 162.206 94.7567L162.042 94.3482C161.361 94.6214 160.681 94.8976 160.003 95.1761L160.17 95.5834ZM164.248 93.9479C164.931 93.6815 165.614 93.4187 166.299 93.1599L166.144 92.7481C165.457 93.0075 164.772 93.2709 164.088 93.5378L164.248 93.9479ZM168.358 92.3964C169.047 92.1462 169.736 91.9006 170.428 91.6602L170.283 91.2444C169.59 91.4855 168.898 91.7318 168.208 91.9827L168.358 92.3964ZM172.507 90.9551C173.202 90.7255 173.898 90.5017 174.597 90.2842L174.466 89.8639C173.765 90.0822 173.066 90.3068 172.369 90.5371L172.507 90.9551ZM176.699 89.651C177.401 89.4467 178.105 89.2492 178.812 89.0592L178.697 88.6341C177.988 88.825 177.281 89.0232 176.576 89.2284L176.699 89.651ZM180.937 88.5118C181.646 88.3373 182.358 88.1708 183.072 88.0128L182.977 87.583C182.259 87.7418 181.544 87.9091 180.832 88.0843L180.937 88.5118ZM185.221 87.5648C185.937 87.4248 186.655 87.2937 187.376 87.1722L187.303 86.7381C186.578 86.8603 185.856 86.9921 185.136 87.1328L185.221 87.5648ZM189.546 86.8367C190.267 86.7353 190.991 86.6438 191.718 86.5628L191.669 86.1253C190.938 86.2068 190.21 86.2988 189.485 86.4007L189.546 86.8367ZM193.904 86.3515C194.628 86.2924 195.355 86.244 196.085 86.2068L196.063 85.7672C195.328 85.8046 194.597 85.8533 193.868 85.9128L193.904 86.3515ZM198.283 86.1294C199.007 86.1154 199.735 86.1127 200.466 86.1218L200.471 85.6816C199.736 85.6724 199.003 85.6752 198.274 85.6893L198.283 86.1294ZM202.667 86.1852C203.389 86.2178 204.114 86.2622 204.842 86.3189L204.876 85.8801C204.143 85.823 203.414 85.7783 202.687 85.7455L202.667 86.1852ZM207.035 86.5263C207.752 86.606 208.472 86.6979 209.195 86.8023L209.258 86.3666C208.53 86.2615 207.806 86.1691 207.084 86.0888L207.035 86.5263ZM211.369 87.1526C212.079 87.279 212.793 87.4177 213.51 87.5691L213.601 87.1384C212.879 86.986 212.161 86.8464 211.446 86.7192L211.369 87.1526ZM215.651 88.0571C216.009 88.1448 216.369 88.2357 216.729 88.3299L216.84 87.904C216.478 87.8092 216.116 87.7177 215.755 87.6295L215.651 88.0571ZM216.729 88.3299C217.092 88.4249 217.453 88.5214 217.811 88.6195L217.927 88.195C217.568 88.0965 217.205 87.9994 216.84 87.904L216.729 88.3299ZM219.924 89.2264C220.618 89.4346 221.3 89.6489 221.972 89.8688L222.109 89.4505C221.434 89.2294 220.748 89.0141 220.051 88.8048L219.924 89.2264ZM224.046 90.5778C224.74 90.8254 225.422 91.0794 226.092 91.3395L226.252 90.9291C225.577 90.6675 224.891 90.4122 224.193 90.1632L224.046 90.5778ZM228.073 92.1394C228.762 92.4286 229.437 92.7245 230.101 93.0267L230.283 92.6262C229.616 92.3221 228.936 92.0245 228.244 91.7336L228.073 92.1394ZM232.053 93.9523C232.712 94.2767 233.358 94.6076 233.991 94.9446L234.198 94.556C233.56 94.2168 232.911 93.8838 232.248 93.5574L232.053 93.9523ZM235.9 96.0004C236.53 96.362 237.146 96.7299 237.751 97.1037L237.982 96.7293C237.374 96.353 236.753 95.9827 236.119 95.6187L235.9 96.0004ZM239.597 98.2893C240.2 98.6907 240.79 99.0983 241.367 99.5115L241.623 99.1535C241.042 98.7374 240.448 98.3271 239.842 97.923L239.597 98.2893ZM243.13 100.82C243.706 101.263 244.269 101.712 244.82 102.166L245.1 101.826C244.545 101.369 243.978 100.917 243.398 100.471L243.13 100.82ZM246.482 103.585C247.027 104.067 247.56 104.554 248.081 105.046L248.383 104.727C247.859 104.231 247.322 103.74 246.773 103.255L246.482 103.585ZM249.641 106.571C250.154 107.088 250.654 107.609 251.143 108.135L251.466 107.836C250.973 107.306 250.47 106.781 249.954 106.261L249.641 106.571ZM252.603 109.755C253.082 110.303 253.55 110.854 254.008 111.409L254.347 111.129C253.887 110.571 253.417 110.016 252.935 109.465L252.603 109.755ZM255.371 113.112C255.818 113.686 256.255 114.262 256.682 114.841L257.037 114.58C256.607 113.998 256.168 113.418 255.719 112.841L255.371 113.112ZM257.958 116.613C258.376 117.208 258.785 117.805 259.185 118.402L259.551 118.157C259.149 117.557 258.738 116.958 258.319 116.36L257.958 116.613ZM260.386 120.23C260.779 120.842 261.165 121.454 261.545 122.066L261.919 121.835C261.538 121.22 261.151 120.606 260.756 119.992L260.386 120.23ZM262.683 123.933C263.059 124.558 263.429 125.182 263.794 125.805L264.173 125.583C263.808 124.959 263.437 124.333 263.061 123.706L262.683 123.933ZM264.889 127.693C265.254 128.328 265.615 128.96 265.972 129.588L266.355 129.371C265.997 128.742 265.636 128.109 265.271 127.474L264.889 127.693ZM267.047 131.482C267.41 132.121 267.77 132.756 268.129 133.386L268.512 133.168C268.153 132.539 267.793 131.904 267.43 131.265L267.047 131.482ZM269.213 135.272C269.582 135.909 269.952 136.54 270.322 137.164L270.701 136.939C270.331 136.317 269.962 135.688 269.594 135.051L269.213 135.272ZM271.453 139.034C271.837 139.658 272.225 140.274 272.617 140.88L272.987 140.641C272.597 140.038 272.211 139.425 271.827 138.803L271.453 139.034ZM273.833 142.708C274.248 143.313 274.669 143.907 275.098 144.489L275.452 144.228C275.027 143.651 274.608 143.061 274.196 142.459L273.833 142.708ZM276.434 146.227C276.895 146.802 277.366 147.362 277.848 147.906L278.178 147.614C277.7 147.076 277.234 146.521 276.777 145.951L276.434 146.227ZM279.345 149.504C279.863 150.026 280.394 150.53 280.94 151.014L281.233 150.685C280.693 150.207 280.169 149.71 279.658 149.194L279.345 149.504ZM282.633 152.412C283.213 152.857 283.809 153.281 284.425 153.683L284.665 153.315C284.06 152.919 283.472 152.501 282.901 152.063L282.633 152.412ZM286.314 154.813C286.948 155.158 287.602 155.482 288.276 155.782L288.455 155.38C287.792 155.084 287.149 154.766 286.525 154.426L286.314 154.813ZM290.323 156.597C291.002 156.837 291.7 157.055 292.42 157.25L292.535 156.825C291.826 156.633 291.138 156.418 290.47 156.182L290.323 156.597ZM294.546 157.745C295.259 157.886 295.991 158.005 296.744 158.102L296.8 157.666C296.057 157.57 295.334 157.452 294.631 157.313L294.546 157.745ZM298.889 158.317C299.613 158.368 300.356 158.401 301.118 158.415L301.126 157.974C300.372 157.961 299.637 157.929 298.92 157.878L298.889 158.317ZM303.266 158.402C303.995 158.381 304.742 158.344 305.505 158.289L305.474 157.85C304.716 157.904 303.976 157.941 303.253 157.962L303.266 158.402ZM307.63 158.096C308.352 158.018 309.09 157.925 309.842 157.817L309.78 157.381C309.032 157.488 308.299 157.581 307.582 157.659L307.63 158.096ZM311.967 157.479C312.672 157.356 313.389 157.221 314.12 157.073L314.033 156.642C313.306 156.789 312.592 156.923 311.891 157.045L311.967 157.479ZM316.289 156.606C316.971 156.45 317.664 156.284 318.368 156.108L318.26 155.681C317.559 155.857 316.87 156.022 316.191 156.177L316.289 156.606ZM320.514 155.545C320.877 155.446 321.243 155.344 321.612 155.239L321.492 154.816C321.124 154.92 320.76 155.021 320.398 155.12L320.514 155.545ZM321.612 155.239C321.974 155.137 322.333 155.035 322.69 154.935L322.571 154.511C322.214 154.612 321.854 154.713 321.492 154.816L321.612 155.239ZM324.808 154.348C325.529 154.15 326.24 153.957 326.944 153.769L326.83 153.343C326.126 153.532 325.413 153.725 324.692 153.923L324.808 154.348ZM329.056 153.209C329.781 153.02 330.498 152.834 331.206 152.653L331.097 152.227C330.388 152.408 329.671 152.593 328.944 152.784L329.056 153.209ZM333.339 152.116C334.059 151.936 334.771 151.761 335.474 151.591L335.37 151.163C334.666 151.334 333.954 151.509 333.232 151.689L333.339 152.116ZM337.626 151.075C338.348 150.904 339.061 150.737 339.766 150.574L339.667 150.145C338.961 150.308 338.247 150.475 337.524 150.646L337.626 151.075ZM341.91 150.085C342.639 149.921 343.358 149.76 344.069 149.604L343.975 149.174C343.263 149.331 342.543 149.491 341.813 149.655L341.91 150.085ZM346.222 149.135C346.946 148.978 347.662 148.825 348.37 148.676L348.279 148.245C347.57 148.395 346.854 148.548 346.129 148.704L346.222 149.135ZM350.53 148.222C351.258 148.07 351.979 147.921 352.692 147.774L352.603 147.343C351.89 147.49 351.169 147.639 350.44 147.791L350.53 148.222ZM354.851 147.33C355.577 147.181 356.296 147.034 357.009 146.888L356.921 146.457C356.208 146.603 355.489 146.75 354.763 146.899L354.851 147.33ZM359.166 146.445C359.891 146.296 360.611 146.146 361.326 145.997L361.236 145.566C360.522 145.715 359.802 145.865 359.077 146.014L359.166 146.445ZM363.486 145.541C364.209 145.387 364.927 145.232 365.643 145.075L365.548 144.645C364.834 144.802 364.116 144.957 363.394 145.111L363.486 145.541ZM367.796 144.595C368.514 144.432 369.23 144.266 369.945 144.097L369.844 143.669C369.13 143.837 368.415 144.003 367.698 144.165L367.796 144.595ZM372.09 143.579C372.803 143.403 373.516 143.223 374.231 143.038L374.12 142.612C373.408 142.796 372.696 142.976 371.985 143.152L372.09 143.579ZM376.365 142.471C377.071 142.279 377.779 142.081 378.49 141.877L378.368 141.454C377.659 141.657 376.953 141.854 376.249 142.046L376.365 142.471ZM380.606 141.254C381.304 141.043 382.007 140.826 382.714 140.601L382.581 140.182C381.875 140.406 381.175 140.623 380.479 140.833L380.606 141.254ZM384.815 139.917C385.507 139.686 386.205 139.448 386.909 139.201L386.764 138.786C386.062 139.031 385.366 139.269 384.675 139.5L384.815 139.917ZM388.985 138.458C389.666 138.209 390.353 137.952 391.048 137.686L390.891 137.275C390.198 137.54 389.513 137.796 388.833 138.045L388.985 138.458ZM393.105 136.884C393.783 136.615 394.468 136.337 395.16 136.051L394.992 135.644C394.301 135.93 393.618 136.206 392.942 136.475L393.105 136.884ZM397.188 135.199C397.854 134.914 398.527 134.621 399.208 134.32L399.03 133.918C398.351 134.218 397.679 134.51 397.015 134.794L397.188 135.199ZM401.232 133.412C401.89 133.112 402.556 132.805 403.229 132.489L403.042 132.091C402.37 132.406 401.706 132.712 401.049 133.012L401.232 133.412ZM405.219 131.544C405.878 131.227 406.545 130.902 407.22 130.57L407.025 130.175C406.352 130.507 405.686 130.831 405.028 131.148L405.219 131.544ZM409.177 129.594C409.828 129.266 410.486 128.931 411.152 128.588L410.951 128.196C410.286 128.539 409.629 128.873 408.979 129.201L409.177 129.594ZM413.104 127.573C413.434 127.4 413.764 127.225 414.097 127.049L413.891 126.66C413.559 126.836 413.228 127.01 412.9 127.183L413.104 127.573ZM414.097 127.049C414.428 126.874 414.758 126.702 415.088 126.534L414.888 126.141C414.556 126.311 414.224 126.484 413.891 126.66L414.097 127.049ZM417.07 125.562C417.731 125.251 418.392 124.952 419.052 124.667L418.877 124.263C418.213 124.55 417.548 124.85 416.883 125.163L417.07 125.562ZM421.075 123.831C421.762 123.56 422.45 123.302 423.137 123.057L422.989 122.642C422.297 122.889 421.605 123.148 420.914 123.421L421.075 123.831ZM425.198 122.361C425.898 122.137 426.599 121.926 427.299 121.728L427.179 121.305C426.474 121.504 425.769 121.716 425.064 121.941L425.198 122.361ZM429.421 121.167C430.129 120.993 430.836 120.831 431.543 120.681L431.452 120.251C430.74 120.401 430.028 120.564 429.316 120.74L429.421 121.167ZM433.701 120.263C434.422 120.135 435.143 120.02 435.864 119.917L435.802 119.482C435.076 119.585 434.351 119.701 433.624 119.829L433.701 120.263ZM438.03 119.643C438.759 119.563 439.488 119.495 440.217 119.438L440.182 118.999C439.449 119.056 438.716 119.125 437.982 119.206L438.03 119.643ZM442.402 119.301C443.131 119.266 443.861 119.243 444.59 119.23L444.582 118.79C443.849 118.803 443.115 118.826 442.381 118.861L442.402 119.301ZM446.782 119.224C447.513 119.233 448.243 119.252 448.973 119.281L448.991 118.841C448.257 118.812 447.522 118.793 446.787 118.784L446.782 119.224ZM451.161 119.397C451.889 119.445 452.618 119.503 453.346 119.57L453.386 119.132C452.655 119.064 451.922 119.006 451.19 118.957L451.161 119.397ZM455.529 119.798C456.253 119.883 456.977 119.976 457.701 120.077L457.762 119.641C457.035 119.539 456.308 119.446 455.58 119.361L455.529 119.798ZM459.87 120.406C460.591 120.523 461.312 120.648 462.033 120.781L462.112 120.348C461.389 120.215 460.665 120.089 459.941 119.971L459.87 120.406ZM464.183 121.199C464.9 121.345 465.616 121.498 466.332 121.658L466.428 121.229C465.709 121.068 464.991 120.914 464.271 120.767L464.183 121.199ZM468.468 122.155C469.177 122.326 469.887 122.503 470.596 122.687L470.706 122.26C469.995 122.077 469.283 121.899 468.571 121.727L468.468 122.155ZM472.721 123.253C473.425 123.446 474.128 123.644 474.83 123.847L474.953 123.425C474.248 123.221 473.543 123.022 472.838 122.828L472.721 123.253ZM476.935 124.471C477.636 124.683 478.337 124.9 479.036 125.121L479.169 124.701C478.468 124.48 477.766 124.262 477.063 124.05L476.935 124.471ZM481.124 125.793C481.819 126.02 482.514 126.252 483.208 126.486L483.349 126.069C482.654 125.834 481.957 125.602 481.261 125.374L481.124 125.793ZM485.287 127.2C485.978 127.44 486.668 127.683 487.358 127.929L487.506 127.514C486.815 127.268 486.124 127.025 485.432 126.784L485.287 127.2ZM489.425 128.674C490.113 128.925 490.801 129.178 491.488 129.432L491.641 129.02C490.953 128.765 490.265 128.511 489.576 128.261L489.425 128.674ZM493.546 130.201C494.232 130.459 494.917 130.719 495.601 130.98L495.758 130.568C495.073 130.307 494.387 130.048 493.701 129.789L493.546 130.201ZM497.654 131.766C498.339 132.029 499.022 132.293 499.705 132.557L499.864 132.147C499.181 131.882 498.497 131.618 497.812 131.355L497.654 131.766ZM501.753 133.351C502.437 133.617 503.121 133.884 503.804 134.149L503.964 133.739C503.281 133.473 502.597 133.207 501.912 132.941L501.753 133.351ZM505.853 134.946C506.536 135.212 507.219 135.476 507.9 135.74L508.059 135.33C507.378 135.066 506.695 134.801 506.012 134.536L505.853 134.946ZM509.956 136.533C510.641 136.796 511.325 137.058 512.008 137.318L512.165 136.907C511.482 136.647 510.798 136.385 510.114 136.122L509.956 136.533ZM514.065 138.096C514.754 138.354 515.442 138.611 516.13 138.865L516.283 138.452C515.596 138.198 514.908 137.942 514.22 137.684L514.065 138.096ZM518.191 139.619C518.883 139.87 519.575 140.118 520.265 140.363L520.412 139.948C519.723 139.704 519.032 139.456 518.341 139.206L518.191 139.619ZM522.344 141.089C523.037 141.327 523.728 141.562 524.419 141.792L524.558 141.375C523.869 141.145 523.179 140.911 522.488 140.673L522.344 141.089ZM526.52 142.481C527.22 142.706 527.919 142.926 528.618 143.141L528.747 142.721C528.051 142.506 527.353 142.286 526.655 142.062L526.52 142.481ZM530.722 143.774C531.431 143.982 532.139 144.184 532.846 144.38L532.964 143.956C532.259 143.761 531.553 143.559 530.846 143.352L530.722 143.774ZM534.965 144.949C535.68 145.135 536.394 145.313 537.107 145.485L537.21 145.057C536.499 144.886 535.788 144.708 535.076 144.523L534.965 144.949ZM539.254 145.979C539.971 146.136 540.687 146.286 541.402 146.427L541.487 145.996C540.775 145.855 540.063 145.706 539.349 145.549L539.254 145.979ZM543.578 146.832C544.302 146.958 545.025 147.074 545.747 147.181L545.812 146.746C545.094 146.639 544.374 146.523 543.653 146.398L543.578 146.832ZM547.934 147.476C548.666 147.565 549.397 147.643 550.127 147.71L550.168 147.272C549.442 147.205 548.715 147.127 547.986 147.039L547.934 147.476ZM552.318 147.878C553.056 147.924 553.792 147.957 554.527 147.978L554.54 147.538C553.81 147.517 553.078 147.484 552.345 147.439L552.318 147.878ZM556.729 148.003C557.465 147.999 558.2 147.982 558.934 147.951L558.916 147.511C558.187 147.542 557.458 147.559 556.726 147.563L556.729 148.003ZM561.137 147.817C561.869 147.758 562.6 147.685 563.33 147.597L563.278 147.16C562.554 147.247 561.828 147.32 561.101 147.378L561.137 147.817ZM565.513 147.29C566.24 147.172 566.965 147.039 567.688 146.891L567.6 146.46C566.882 146.607 566.163 146.739 565.443 146.855L565.513 147.29ZM569.832 146.403C570.544 146.224 571.254 146.03 571.963 145.82L571.838 145.398C571.135 145.607 570.431 145.799 569.725 145.976L569.832 146.403ZM574.065 145.145C574.754 144.907 575.44 144.654 576.126 144.383L575.964 143.974C575.285 144.242 574.604 144.493 573.922 144.729L574.065 145.145ZM578.178 143.522C578.838 143.228 579.497 142.918 580.155 142.591L579.959 142.197C579.307 142.521 578.654 142.828 577.999 143.12L578.178 143.522ZM582.112 141.568C582.756 141.215 583.398 140.845 584.039 140.459L583.812 140.082C583.176 140.465 582.539 140.832 581.9 141.183L582.112 141.568ZM585.881 139.299C586.493 138.897 587.105 138.479 587.715 138.045L587.46 137.687C586.854 138.117 586.247 138.532 585.639 138.931L585.881 139.299ZM589.49 136.734C590.06 136.297 590.629 135.845 591.197 135.379L590.917 135.039C590.354 135.502 589.789 135.95 589.222 136.384L589.49 136.734ZM592.896 133.936C593.179 133.688 593.461 133.436 593.744 133.18L593.448 132.854C593.168 133.108 592.887 133.359 592.606 133.605L592.896 133.936ZM593.744 133.18C594.012 132.937 594.281 132.697 594.549 132.461L594.258 132.13C593.988 132.368 593.718 132.609 593.448 132.854L593.744 133.18ZM596.166 131.074C596.719 130.612 597.271 130.165 597.82 129.732L597.547 129.386C596.995 129.822 596.441 130.272 595.884 130.736L596.166 131.074ZM599.519 128.428C600.098 127.995 600.675 127.576 601.248 127.17L600.994 126.811C600.418 127.219 599.838 127.64 599.255 128.075L599.519 128.428ZM603.008 125.957C603.608 125.555 604.204 125.165 604.796 124.787L604.559 124.416C603.965 124.796 603.366 125.187 602.763 125.592L603.008 125.957ZM606.608 123.656C607.226 123.279 607.837 122.914 608.443 122.559L608.22 122.18C607.613 122.536 606.999 122.902 606.379 123.28L606.608 123.656ZM610.296 121.492C610.926 121.134 611.548 120.787 612.162 120.446L611.949 120.061C611.334 120.402 610.71 120.751 610.078 121.109L610.296 121.492ZM614.037 119.413C614.674 119.064 615.3 118.721 615.914 118.382L615.702 117.996C615.088 118.335 614.462 118.678 613.826 119.027L614.037 119.413ZM617.785 117.338C618.418 116.98 619.037 116.623 619.64 116.265L619.415 115.886C618.815 116.243 618.199 116.598 617.568 116.955L617.785 117.338ZM621.472 115.139C622.087 114.745 622.684 114.346 623.26 113.938L623.006 113.579C622.436 113.982 621.845 114.378 621.235 114.768L621.472 115.139ZM624.978 112.638C625.543 112.18 626.083 111.706 626.597 111.213L626.292 110.895C625.788 111.379 625.257 111.845 624.7 112.296L624.978 112.638ZM628.082 109.64C628.549 109.092 628.986 108.519 629.392 107.916L629.027 107.671C628.631 108.259 628.203 108.819 627.747 109.355L628.082 109.64ZM630.492 106.054C630.815 105.427 631.107 104.77 631.369 104.078L630.958 103.922C630.702 104.598 630.416 105.241 630.101 105.853L630.492 106.054ZM632.029 102.017C632.208 101.342 632.362 100.637 632.489 99.9003L632.055 99.8255C631.93 100.55 631.779 101.242 631.603 101.904L632.029 102.017ZM632.774 97.7571C632.84 97.0667 632.886 96.3503 632.911 95.6059L632.471 95.5911C632.447 96.3268 632.401 97.0342 632.336 97.7149L632.774 97.7571ZM632.926 93.4587C632.914 92.7681 632.885 92.0552 632.84 91.3191L632.401 91.3461C632.445 92.0763 632.474 92.7827 632.486 93.4667L632.926 93.4587ZM632.669 89.1852C632.633 88.8259 632.594 88.4615 632.552 88.0918L632.115 88.142C632.157 88.5094 632.195 88.8714 632.231 89.2282L632.669 89.1852ZM632.552 88.0918C632.508 87.7093 632.456 87.33 632.395 86.954L631.96 87.0244C632.02 87.3938 632.072 87.7663 632.115 88.142L632.552 88.0918ZM631.928 84.7297C631.738 83.9906 631.514 83.2648 631.259 82.5519L630.845 82.7001C631.095 83.4006 631.315 84.1138 631.502 84.8397L631.928 84.7297ZM630.399 80.4443C630.083 79.7565 629.737 79.0816 629.364 78.4194L628.981 78.6356C629.348 79.2876 629.688 79.9517 629.999 80.6281L630.399 80.4443ZM628.17 76.4818C627.75 75.8548 627.305 75.2399 626.837 74.637L626.49 74.907C626.952 75.5021 627.391 76.1086 627.804 76.7267L628.17 76.4818ZM625.389 72.892C624.891 72.3291 624.373 71.7772 623.836 71.2362L623.523 71.5464C624.055 72.0816 624.567 72.6273 625.059 73.1836L625.389 72.892ZM622.19 69.6654C621.634 69.1612 621.062 68.667 620.475 68.1827L620.195 68.5223C620.777 69.0024 621.344 69.4921 621.895 69.9914L622.19 69.6654ZM618.696 66.78C618.096 66.3266 617.483 65.8825 616.858 65.4474L616.607 65.8087C617.227 66.2406 617.835 66.6814 618.431 67.1312L618.696 66.78ZM614.974 64.1845C614.343 63.7774 613.702 63.3787 613.053 62.9884L612.826 63.3657C613.472 63.7537 614.109 64.1499 614.735 64.5544L614.974 64.1845ZM611.093 61.8492C610.436 61.4803 609.772 61.1193 609.102 60.7662L608.897 61.1556C609.564 61.507 610.224 61.8661 610.877 62.233L611.093 61.8492ZM607.087 59.7362C606.411 59.4011 605.73 59.0736 605.046 58.7536L604.859 59.1523C605.541 59.471 606.219 59.7971 606.891 60.1305L607.087 59.7362ZM602.985 57.8172C602.294 57.5119 601.6 57.2138 600.904 56.9229L600.734 57.3291C601.427 57.6189 602.119 57.9157 602.807 58.2199L602.985 57.8172ZM598.808 56.0695C598.105 55.7908 597.401 55.5191 596.698 55.2545L596.543 55.6665C597.244 55.9302 597.945 56.201 598.646 56.4788L598.808 56.0695ZM594.57 54.4739C593.856 54.2186 593.144 53.9705 592.435 53.7293L592.293 54.1461C593 54.3865 593.71 54.6339 594.422 54.8884L594.57 54.4739ZM590.29 53.0177C589.564 52.7827 588.842 52.555 588.126 52.3345L587.997 52.7552C588.711 52.9751 589.431 53.2022 590.155 53.4366L590.29 53.0177ZM585.96 51.6835C585.231 51.4695 584.509 51.2631 583.796 51.0642L583.678 51.4881C584.389 51.6866 585.109 51.8925 585.836 52.1059L585.96 51.6835ZM581.604 50.4673C580.859 50.2694 580.127 50.0799 579.408 49.8986L579.301 50.3254C580.017 50.5063 580.748 50.6953 581.491 50.8928L581.604 50.4673ZM577.211 49.3581C576.458 49.1775 575.724 49.0065 575.012 48.8448L574.915 49.2741C575.625 49.4354 576.357 49.606 577.109 49.7862L577.211 49.3581ZM572.807 48.3578C572.034 48.1916 571.294 48.0379 570.592 47.896L570.505 48.3275C571.205 48.469 571.943 48.6224 572.715 48.7882L572.807 48.3578ZM568.362 47.4598C567.538 47.3041 566.791 47.1692 566.132 47.0541L566.057 47.4878C566.714 47.6025 567.458 47.737 568.28 47.8923L568.362 47.4598ZM563.892 46.6818C563.542 46.627 563.272 46.5865 563.09 46.5598C562.999 46.5465 562.929 46.5366 562.883 46.53C562.859 46.5267 562.842 46.5242 562.83 46.5225C562.824 46.5217 562.819 46.5211 562.816 46.5207C562.815 46.5205 562.814 46.5203 562.813 46.5202C562.812 46.5202 562.812 46.5201 562.812 46.5201C562.812 46.5201 562.812 46.5201 562.812 46.5201C562.812 46.5201 562.812 46.52 562.812 46.52C562.812 46.52 562.812 46.52 562.812 46.52C562.812 46.52 562.812 46.52 562.782 46.7381C562.752 46.9562 562.752 46.9562 562.752 46.9562C562.752 46.9562 562.752 46.9562 562.752 46.9562C562.752 46.9562 562.752 46.9562 562.752 46.9562C562.752 46.9562 562.753 46.9563 562.753 46.9563C562.754 46.9564 562.755 46.9566 562.756 46.9567C562.759 46.9571 562.763 46.9577 562.769 46.9585C562.781 46.9601 562.798 46.9626 562.821 46.9658C562.867 46.9723 562.935 46.9822 563.026 46.9954C563.207 47.0219 563.475 47.0621 563.824 47.1167L563.892 46.6818Z" fill="#9A54BC"/>
</svg>
