<svg width="57" height="96" viewBox="0 0 57 96" fill="none" xmlns="http://www.w3.org/2000/svg">
<g clip-path="url(#clip0_27_0)">
<path d="M54.0903 0H1.9396C0.867038 0 0 1.03004 0 2.30423V92.8711C0 94.1453 0.867038 95.1753 1.9396 95.1753H54.0903C55.1629 95.1753 56.0299 94.1453 56.0299 92.8711V2.30423C56.0235 1.03004 55.1564 0 54.0903 0Z" fill="url(#paint0_linear_27_0)"/>
<path d="M50.6671 4.10492H5.35636C4.31591 4.10492 3.46814 5.11207 3.46814 6.35574V81.2355C3.46814 82.4792 4.31591 83.4787 5.35636 83.4787H50.6671C51.714 83.4787 52.5553 82.4715 52.5553 81.2355V6.35574C52.5553 5.11207 51.714 4.10492 50.6671 4.10492Z" fill="white"/>
<path d="M37.2762 39.706H18.7537C17.9059 39.706 17.2187 38.8896 17.2187 37.8824V15.8702C17.2187 14.863 17.9059 14.0466 18.7537 14.0466H37.2762C38.124 14.0466 38.8112 14.863 38.8112 15.8702V37.8748C38.8112 38.8819 38.124 39.706 37.2762 39.706Z" fill="url(#paint1_linear_27_0)"/>
<path d="M28.015 92.7109C29.5898 92.7109 30.8665 91.1942 30.8665 89.3232C30.8665 87.4522 29.5898 85.9355 28.015 85.9355C26.4401 85.9355 25.1634 87.4522 25.1634 89.3232C25.1634 91.1942 26.4401 92.7109 28.015 92.7109Z" fill="white"/>
<path d="M44.1547 51.105H11.8688C11.0531 51.105 10.3852 50.3115 10.3852 49.3425C10.3852 48.3735 11.0531 47.58 11.8688 47.58H44.1483C44.9639 47.58 45.6319 48.3735 45.6319 49.3425C45.6319 50.3115 44.9704 51.105 44.1547 51.105Z" fill="url(#paint2_linear_27_0)"/>
<path opacity="0.6" d="M38.6892 60.8713H11.3293C10.8091 60.8713 10.3916 60.3678 10.3916 59.7574V59.6353C10.3916 59.0172 10.8155 58.5213 11.3293 58.5213H38.6892C39.2094 58.5213 39.6269 59.0249 39.6269 59.6353V59.7574C39.6333 60.3678 39.2094 60.8713 38.6892 60.8713Z" fill="url(#paint3_linear_27_0)"/>
<path opacity="0.3" d="M33.4805 67.0744H11.2394C10.7705 67.0744 10.3852 66.6166 10.3852 66.0597V65.7239C10.3852 65.167 10.7705 64.7092 11.2394 64.7092H33.4741C33.9429 64.7092 34.3283 65.167 34.3283 65.7239V66.0597C34.3283 66.6166 33.9429 67.0744 33.4805 67.0744Z" fill="url(#paint4_linear_27_0)"/>
<path opacity="0.6" d="M36.2807 72.8197H11.2908C10.7962 72.8197 10.3916 72.339 10.3916 71.7515V71.5379C10.3916 70.9504 10.7962 70.4697 11.2908 70.4697H36.2807C36.7753 70.4697 37.1799 70.9504 37.1799 71.5379V71.7515C37.1799 72.3314 36.7753 72.8197 36.2807 72.8197Z" fill="url(#paint5_linear_27_0)"/>
<path d="M28.0706 26.1669C29.9252 26.1669 31.4285 24.357 31.4285 22.1244C31.4285 19.8917 29.9252 18.0818 28.0706 18.0818C26.216 18.0818 24.7127 19.8917 24.7127 22.1244C24.7127 24.357 26.209 26.1669 28.0706 26.1669ZM28.0706 28.1881C25.8297 28.1881 21.3548 29.5413 21.3548 32.2306V33.2455C21.3548 33.8037 21.7342 34.2604 22.1978 34.2604H33.9575C34.4211 34.2604 34.8005 33.8037 34.8005 33.2455V32.2306C34.7864 29.5497 30.3116 28.1881 28.0706 28.1881Z" fill="white"/>
</g>
<defs>
<linearGradient id="paint0_linear_27_0" x1="3.39428" y1="45.1096" x2="56.1866" y2="48.8709" gradientUnits="userSpaceOnUse">
<stop stop-color="#6CBCFC"/>
<stop offset="1" stop-color="#458DFC"/>
</linearGradient>
<linearGradient id="paint1_linear_27_0" x1="15.5443" y1="19.3264" x2="42.0757" y2="30.7056" gradientUnits="userSpaceOnUse">
<stop stop-color="#B0F4FF"/>
<stop offset="0.0856277" stop-color="#A3F0FE"/>
<stop offset="0.2972" stop-color="#8AE7FD"/>
<stop offset="0.5161" stop-color="#77E1FD"/>
<stop offset="0.7451" stop-color="#6DDDFC"/>
<stop offset="1" stop-color="#69DCFC"/>
</linearGradient>
<linearGradient id="paint2_linear_27_0" x1="45.635" y1="49.3439" x2="10.3913" y2="49.3439" gradientUnits="userSpaceOnUse">
<stop stop-color="#6CBCFC"/>
<stop offset="1" stop-color="#458DFC"/>
</linearGradient>
<linearGradient id="paint3_linear_27_0" x1="39.6314" y1="59.6929" x2="10.3913" y2="59.6929" gradientUnits="userSpaceOnUse">
<stop stop-color="#6CBCFC"/>
<stop offset="1" stop-color="#458DFC"/>
</linearGradient>
<linearGradient id="paint4_linear_27_0" x1="34.3289" y1="65.8961" x2="10.3912" y2="65.8961" gradientUnits="userSpaceOnUse">
<stop stop-color="#6CBCFC"/>
<stop offset="1" stop-color="#458DFC"/>
</linearGradient>
<linearGradient id="paint5_linear_27_0" x1="37.1794" y1="71.6386" x2="10.3913" y2="71.6386" gradientUnits="userSpaceOnUse">
<stop stop-color="#6CBCFC"/>
<stop offset="1" stop-color="#458DFC"/>
</linearGradient>
<clipPath id="clip0_27_0">
<rect width="56.0235" height="95.1677" fill="white"/>
</clipPath>
</defs>
</svg>
