<svg width="56" height="96" viewBox="0 0 56 96" fill="none" xmlns="http://www.w3.org/2000/svg">
<g clip-path="url(#clip0_33_43)">
<path d="M55.8434 90.6078C55.8434 93.0912 54.173 95.1095 52.109 95.1095L3.81723 95.1759C2.17437 95.1759 0.780013 93.9052 0.276111 92.136C0.144958 91.6792 0.0759305 91.1975 0.0759305 90.6908L0 6.89374C0 4.41031 1.67047 2.39201 3.7344 2.39201L48.0778 2.33387L52.0262 2.32556C54.0901 2.32556 55.7675 4.33556 55.7675 6.81899L55.8434 90.6078Z" fill="url(#paint0_linear_33_43)"/>
<path d="M50.8389 90.1261L5.08044 90.1842C3.96909 90.1842 3.07173 89.1044 3.07173 87.7672L3.0027 9.78421C3.0027 8.44697 3.90006 7.36722 5.01141 7.36722L50.763 7.30908C51.8743 7.30908 52.7717 8.38883 52.7717 9.72607L52.8407 87.7091C52.8476 89.038 51.9503 90.1261 50.8389 90.1261Z" fill="white"/>
<path d="M44.4124 13.7378L11.0375 13.7876C9.93308 13.7876 9.02881 12.7079 9.02881 11.3789L9.02191 4.68446C9.02191 3.35554 9.91927 2.26748 11.0237 2.26748L44.4055 2.22595C45.51 2.22595 46.4142 3.3057 46.4142 4.63463L46.4211 11.3291C46.4142 12.658 45.5169 13.7378 44.4124 13.7378ZM11.0237 3.49674C10.4853 3.49674 10.0435 4.02831 10.0435 4.67616L10.0504 11.3706C10.0504 12.0185 10.4922 12.55 11.0306 12.55L44.4124 12.5085C44.9508 12.5085 45.3926 11.9769 45.3926 11.3291L45.3857 4.63463C45.3857 3.98678 44.9439 3.45521 44.4055 3.45521L11.0237 3.49674Z" fill="url(#paint1_linear_33_43)"/>
<path d="M43.4668 5.12467L12.3007 5.1662C11.9556 5.1662 11.6795 4.83397 11.6795 4.41868V0.78905C11.6795 0.37376 11.9556 0.0415289 12.3007 0.0415289L43.4599 0C43.805 0 44.0811 0.332231 44.0811 0.747521V4.37715C44.088 4.79244 43.8119 5.12467 43.4668 5.12467Z" fill="url(#paint2_linear_33_43)"/>
<path d="M12.3284 5.16624L43.4392 5.12471C43.7981 5.12471 44.088 4.77587 44.088 4.34397V2.56653L11.6726 2.60806V4.38549C11.6726 4.81739 11.9694 5.16624 12.3284 5.16624Z" fill="#58D6F4"/>
<path d="M23.2623 81.3551L20.5703 61.7535L18.389 70.2835L12.1489 70.2918C11.7692 70.2918 11.4655 69.9264 11.4655 69.4695C11.4655 69.0127 11.7692 68.6473 12.1489 68.6473L17.3881 68.639L20.9844 54.5939L23.6765 74.2454L27.1693 60.7485L29.0262 67.1439L33.2092 54.9427L37.275 74.2952L38.8074 68.1406L43.2942 68.1323C43.6738 68.1323 43.9776 68.4978 43.9776 68.9546C43.9776 69.4114 43.6738 69.7768 43.2942 69.7768L39.8221 69.7852L37.1645 80.4581L32.8986 60.1587L28.9157 71.7619L27.2383 65.9894L23.2623 81.3551Z" fill="#58D6F4"/>
<path d="M18.6375 43.5639L9.86404 43.5722C8.44897 43.5722 7.2893 42.1851 7.2893 40.4824L7.2755 25.7231C7.2755 24.0204 8.42826 22.625 9.84333 22.625L18.6168 22.6167C20.0318 22.6167 21.1915 24.0038 21.1915 25.7065L21.2053 40.4658C21.2053 42.1685 20.0525 43.5556 18.6375 43.5639ZM9.83643 23.522C8.82862 23.522 8.01409 24.5104 8.01409 25.7231L8.0279 40.4824C8.0279 41.6951 8.84933 42.6752 9.85714 42.6752L18.6306 42.6669C19.6384 42.6669 20.4529 41.6785 20.4529 40.4658L20.4391 25.7065C20.4391 24.4938 19.6177 23.5137 18.6099 23.5137L9.83643 23.522Z" fill="url(#paint3_linear_33_43)"/>
<path d="M14.2404 40.7316C18.389 40.7233 19.6798 37.8412 19.6798 37.8412C19.4934 37.5588 19.2587 37.3096 18.9412 37.0604C17.8506 36.2049 16.9739 35.8395 16.6081 35.474C16.2353 35.1169 16.0282 34.5936 16.0282 34.5936L15.8004 34.7597C15.8004 34.7597 15.6624 34.1866 15.7383 33.3145C15.7383 33.3145 16.0628 33.2148 16.3043 31.8942C16.6909 31.9856 17.1465 30.8062 16.9325 30.3743C16.7944 30.0919 16.6288 30.1168 16.5114 30.1832C16.6288 29.5935 17.1603 26.3293 14.2335 26.3293C11.3067 26.3293 11.8383 29.5935 11.9625 30.1832C11.8452 30.1168 11.6795 30.0919 11.5414 30.3743C11.3274 30.8062 11.7899 31.9856 12.1765 31.8942C12.4181 33.2148 12.7494 33.3062 12.7494 33.3062C12.8323 34.17 12.6873 34.7514 12.6873 34.7514L12.4595 34.5853C12.4595 34.5853 12.2524 35.1003 11.8797 35.4657C11.5069 35.8312 10.6372 36.2049 9.54653 37.0604C9.229 37.3096 8.98741 37.5588 8.80793 37.8412C8.80103 37.8578 10.0988 40.7399 14.2404 40.7316Z" fill="url(#paint4_linear_33_43)"/>
<path d="M41.5616 27.3261L24.6705 27.351C24.353 27.351 24.0976 27.0437 24.0976 26.6616V26.5454C24.0976 26.1633 24.353 25.856 24.6705 25.856L41.5616 25.8311C41.8791 25.8311 42.1345 26.1384 42.1345 26.5204V26.6367C42.1345 27.0188 41.8722 27.3261 41.5616 27.3261Z" fill="url(#paint5_linear_33_43)"/>
<path d="M35.3491 31.1965L24.6705 31.2131C24.353 31.2131 24.0976 30.9058 24.0976 30.5237V30.4074C24.0976 30.0253 24.353 29.718 24.6705 29.718L35.3491 29.7014C35.6666 29.7014 35.922 30.0087 35.922 30.3908V30.5071C35.922 30.8892 35.6666 31.1965 35.3491 31.1965Z" fill="url(#paint6_linear_33_43)"/>
<path opacity="0.6" d="M47.3875 35.7979L24.6774 35.8311C24.3599 35.8311 24.1045 35.5238 24.1045 35.1417V35.0255C24.1045 34.6434 24.3599 34.3361 24.6774 34.3361L47.3875 34.3029C47.7051 34.3029 47.9605 34.6102 47.9605 34.9922V35.1085C47.9536 35.4906 47.6982 35.7979 47.3875 35.7979Z" fill="url(#paint7_linear_33_43)"/>
<path opacity="0.6" d="M46.8974 48.73L9.01503 48.7799C8.6906 48.7799 8.42139 48.4642 8.42139 48.0656V47.9991C8.42139 47.6087 8.68369 47.2848 9.01503 47.2848L46.8974 47.235C47.2219 47.235 47.4911 47.5506 47.4911 47.9493V48.0157C47.4911 48.4144 47.2219 48.73 46.8974 48.73Z" fill="url(#paint8_linear_33_43)"/>
<path opacity="0.6" d="M47.3875 40.3163L24.6774 40.3496C24.3599 40.3496 24.1045 40.0422 24.1045 39.6602V39.5439C24.1045 39.1618 24.3599 38.8545 24.6774 38.8545L47.3875 38.8213C47.7051 38.8213 47.9605 39.1286 47.9605 39.5107V39.627C47.9605 40.009 47.7051 40.3163 47.3875 40.3163Z" fill="url(#paint9_linear_33_43)"/>
</g>
<defs>
<linearGradient id="paint0_linear_33_43" x1="-7.73327" y1="34.8092" x2="65.747" y2="54.6514" gradientUnits="userSpaceOnUse">
<stop stop-color="#6CBCFC"/>
<stop offset="0.1713" stop-color="#5EABFC"/>
<stop offset="0.4084" stop-color="#509AFC"/>
<stop offset="0.6698" stop-color="#4890FC"/>
<stop offset="1" stop-color="#458DFC"/>
</linearGradient>
<linearGradient id="paint1_linear_33_43" x1="-4.35006" y1="-21.4127" x2="49.5545" y2="0.161329" gradientUnits="userSpaceOnUse">
<stop stop-color="#CFE9FF"/>
<stop offset="1" stop-color="#A1D6FB"/>
</linearGradient>
<linearGradient id="paint2_linear_33_43" x1="11.6716" y1="2.58407" x2="44.0874" y2="2.58407" gradientUnits="userSpaceOnUse">
<stop stop-color="#B0F4FF"/>
<stop offset="1" stop-color="#69DCFC"/>
</linearGradient>
<linearGradient id="paint3_linear_33_43" x1="11.768" y1="29.2591" x2="21.8621" y2="40.0886" gradientUnits="userSpaceOnUse">
<stop stop-color="#6CBCFC"/>
<stop offset="1" stop-color="#458DFC"/>
</linearGradient>
<linearGradient id="paint4_linear_33_43" x1="10.8848" y1="30.0823" x2="20.979" y2="40.9118" gradientUnits="userSpaceOnUse">
<stop stop-color="#B0F4FF"/>
<stop offset="0.0994384" stop-color="#A1EFFE"/>
<stop offset="0.2994" stop-color="#88E7FD"/>
<stop offset="0.5095" stop-color="#77E1FD"/>
<stop offset="0.7344" stop-color="#6CDDFC"/>
<stop offset="1" stop-color="#69DCFC"/>
</linearGradient>
<linearGradient id="paint5_linear_33_43" x1="24.0985" y1="26.5978" x2="42.1309" y2="26.6068" gradientUnits="userSpaceOnUse">
<stop stop-color="#6CBCFC"/>
<stop offset="1" stop-color="#458DFC"/>
</linearGradient>
<linearGradient id="paint6_linear_33_43" x1="24.1019" y1="30.4573" x2="35.9213" y2="30.4573" gradientUnits="userSpaceOnUse">
<stop stop-color="#6CBCFC"/>
<stop offset="1" stop-color="#458DFC"/>
</linearGradient>
<linearGradient id="paint7_linear_33_43" x1="24.1058" y1="35.0715" x2="47.9566" y2="35.0715" gradientUnits="userSpaceOnUse">
<stop stop-color="#6CBCFC"/>
<stop offset="1" stop-color="#458DFC"/>
</linearGradient>
<linearGradient id="paint8_linear_33_43" x1="8.42106" y1="48.0118" x2="47.4892" y2="48.0118" gradientUnits="userSpaceOnUse">
<stop stop-color="#6CBCFC"/>
<stop offset="1" stop-color="#458DFC"/>
</linearGradient>
<linearGradient id="paint9_linear_33_43" x1="24.1096" y1="39.589" x2="47.9604" y2="39.589" gradientUnits="userSpaceOnUse">
<stop stop-color="#6CBCFC"/>
<stop offset="1" stop-color="#458DFC"/>
</linearGradient>
<clipPath id="clip0_33_43">
<rect width="55.8434" height="95.1677" fill="white"/>
</clipPath>
</defs>
</svg>
