<svg width="165" height="43" viewBox="0 0 165 43" fill="none" xmlns="http://www.w3.org/2000/svg">
<path d="M60.856 30V15.624H55.264V13.08H69.544V15.624H63.952V30H60.856ZM69.5924 30V20.976C69.5924 20.464 69.5764 19.944 69.5444 19.416C69.5284 18.888 69.4884 18.376 69.4244 17.88H72.3284L72.6644 21.192H72.1844C72.3444 20.392 72.6084 19.728 72.9764 19.2C73.3604 18.672 73.8244 18.28 74.3684 18.024C74.9124 17.768 75.5044 17.64 76.1444 17.64C76.4324 17.64 76.6644 17.656 76.8404 17.688C77.0164 17.704 77.1924 17.744 77.3684 17.808L77.3444 20.448C77.0404 20.32 76.7764 20.24 76.5524 20.208C76.3444 20.176 76.0804 20.16 75.7604 20.16C75.0724 20.16 74.4884 20.304 74.0084 20.592C73.5444 20.88 73.1924 21.28 72.9524 21.792C72.7284 22.304 72.6164 22.888 72.6164 23.544V30H69.5924ZM83.6011 30.24C82.5451 30.24 81.6171 29.992 80.8171 29.496C80.0171 28.984 79.3931 28.256 78.9451 27.312C78.4971 26.368 78.2731 25.24 78.2731 23.928C78.2731 22.616 78.4971 21.496 78.9451 20.568C79.3931 19.624 80.0171 18.904 80.8171 18.408C81.6171 17.896 82.5451 17.64 83.6011 17.64C84.6251 17.64 85.5211 17.896 86.2891 18.408C87.0731 18.904 87.5931 19.576 87.8491 20.424H87.5851L87.8491 17.88H90.7291C90.6811 18.376 90.6331 18.88 90.5851 19.392C90.5531 19.904 90.5371 20.408 90.5371 20.904V30H87.5611L87.5371 27.504H87.8251C87.5691 28.336 87.0491 29 86.2651 29.496C85.4811 29.992 84.5931 30.24 83.6011 30.24ZM84.4411 27.936C85.3851 27.936 86.1451 27.608 86.7211 26.952C87.2971 26.28 87.5851 25.272 87.5851 23.928C87.5851 22.584 87.2971 21.584 86.7211 20.928C86.1451 20.272 85.3851 19.944 84.4411 19.944C83.4971 19.944 82.7371 20.272 82.1611 20.928C81.5851 21.584 81.2971 22.584 81.2971 23.928C81.2971 25.272 81.5771 26.28 82.1371 26.952C82.7131 27.608 83.4811 27.936 84.4411 27.936ZM94.6199 30V20.136H92.2919V17.88H95.4599L94.6199 18.648V16.8C94.6199 15.296 95.0039 14.16 95.7719 13.392C96.5559 12.624 97.6999 12.24 99.2039 12.24C99.5559 12.24 99.9239 12.264 100.308 12.312C100.708 12.36 101.052 12.448 101.34 12.576V14.928C101.132 14.848 100.884 14.784 100.596 14.736C100.308 14.688 100.028 14.664 99.7559 14.664C99.3399 14.664 98.9639 14.744 98.6279 14.904C98.3079 15.064 98.0519 15.312 97.8599 15.648C97.6839 15.968 97.5959 16.4 97.5959 16.944V18.408L97.1639 17.88H100.788V20.136H97.6199V30H94.6199ZM107.203 30.24C106.147 30.24 105.219 29.992 104.419 29.496C103.619 28.984 102.995 28.256 102.547 27.312C102.099 26.368 101.875 25.24 101.875 23.928C101.875 22.616 102.099 21.496 102.547 20.568C102.995 19.624 103.619 18.904 104.419 18.408C105.219 17.896 106.147 17.64 107.203 17.64C108.227 17.64 109.123 17.896 109.891 18.408C110.675 18.904 111.195 19.576 111.451 20.424H111.187L111.451 17.88H114.331C114.283 18.376 114.235 18.88 114.187 19.392C114.155 19.904 114.139 20.408 114.139 20.904V30H111.163L111.139 27.504H111.427C111.171 28.336 110.651 29 109.867 29.496C109.083 29.992 108.195 30.24 107.203 30.24ZM108.043 27.936C108.987 27.936 109.747 27.608 110.323 26.952C110.899 26.28 111.187 25.272 111.187 23.928C111.187 22.584 110.899 21.584 110.323 20.928C109.747 20.272 108.987 19.944 108.043 19.944C107.099 19.944 106.339 20.272 105.763 20.928C105.187 21.584 104.899 22.584 104.899 23.928C104.899 25.272 105.179 26.28 105.739 26.952C106.315 27.608 107.083 27.936 108.043 27.936ZM117.405 30V12.336H120.405V30H117.405ZM129.279 35.376C128.159 35.376 127.143 35.256 126.231 35.016C125.335 34.776 124.535 34.408 123.831 33.912L124.479 31.752C124.943 32.056 125.423 32.304 125.919 32.496C126.415 32.688 126.927 32.832 127.455 32.928C127.983 33.024 128.519 33.072 129.063 33.072C130.183 33.072 131.015 32.792 131.559 32.232C132.119 31.688 132.399 30.904 132.399 29.88V26.976H132.639C132.383 27.808 131.863 28.472 131.079 28.968C130.311 29.464 129.423 29.712 128.415 29.712C127.327 29.712 126.375 29.472 125.559 28.992C124.759 28.496 124.135 27.792 123.687 26.88C123.239 25.968 123.015 24.896 123.015 23.664C123.015 22.432 123.239 21.368 123.687 20.472C124.135 19.56 124.759 18.864 125.559 18.384C126.375 17.888 127.327 17.64 128.415 17.64C129.439 17.64 130.327 17.888 131.079 18.384C131.847 18.864 132.359 19.52 132.615 20.352L132.399 20.208L132.639 17.88H135.543C135.479 18.376 135.431 18.88 135.399 19.392C135.367 19.904 135.351 20.408 135.351 20.904V29.52C135.351 31.424 134.831 32.872 133.791 33.864C132.767 34.872 131.263 35.376 129.279 35.376ZM129.231 27.408C130.191 27.408 130.951 27.088 131.511 26.448C132.087 25.792 132.375 24.864 132.375 23.664C132.375 22.464 132.087 21.544 131.511 20.904C130.951 20.264 130.191 19.944 129.231 19.944C128.255 19.944 127.479 20.264 126.903 20.904C126.327 21.544 126.039 22.464 126.039 23.664C126.039 24.864 126.327 25.792 126.903 26.448C127.479 27.088 128.255 27.408 129.231 27.408ZM143.273 30.24C142.217 30.24 141.289 29.992 140.489 29.496C139.689 28.984 139.065 28.256 138.617 27.312C138.169 26.368 137.945 25.24 137.945 23.928C137.945 22.616 138.169 21.496 138.617 20.568C139.065 19.624 139.689 18.904 140.489 18.408C141.289 17.896 142.217 17.64 143.273 17.64C144.297 17.64 145.193 17.896 145.961 18.408C146.745 18.904 147.265 19.576 147.521 20.424H147.257L147.521 17.88H150.401C150.353 18.376 150.305 18.88 150.257 19.392C150.225 19.904 150.209 20.408 150.209 20.904V30H147.233L147.209 27.504H147.497C147.241 28.336 146.721 29 145.937 29.496C145.153 29.992 144.265 30.24 143.273 30.24ZM144.113 27.936C145.057 27.936 145.817 27.608 146.393 26.952C146.969 26.28 147.257 25.272 147.257 23.928C147.257 22.584 146.969 21.584 146.393 20.928C145.817 20.272 145.057 19.944 144.113 19.944C143.169 19.944 142.409 20.272 141.833 20.928C141.257 21.584 140.969 22.584 140.969 23.928C140.969 25.272 141.249 26.28 141.809 26.952C142.385 27.608 143.153 27.936 144.113 27.936ZM153.452 30V20.976C153.452 20.464 153.436 19.944 153.404 19.416C153.388 18.888 153.348 18.376 153.284 17.88H156.188L156.524 21.192H156.044C156.204 20.392 156.468 19.728 156.836 19.2C157.22 18.672 157.684 18.28 158.228 18.024C158.772 17.768 159.364 17.64 160.004 17.64C160.292 17.64 160.524 17.656 160.7 17.688C160.876 17.704 161.052 17.744 161.228 17.808L161.204 20.448C160.9 20.32 160.636 20.24 160.412 20.208C160.204 20.176 159.94 20.16 159.62 20.16C158.932 20.16 158.348 20.304 157.868 20.592C157.404 20.88 157.052 21.28 156.812 21.792C156.588 22.304 156.476 22.888 156.476 23.544V30H153.452Z" fill="white"/>
<ellipse cx="21" cy="21.5" rx="21" ry="21.5" fill="white"/>
<path d="M19.344 31V15.426H13.286V12.67H28.756V15.426H22.698V31H19.344Z" fill="#5B9BF3"/>
</svg>
