<svg width="77" height="91" viewBox="0 0 77 91" fill="none" xmlns="http://www.w3.org/2000/svg">
<g clip-path="url(#clip0_23_156)">
<path d="M46.8021 43.3916L39.2444 52.0719L7.32924 88.7224C6.49137 89.6869 5.41653 90.1691 4.34169 90.1691C3.16529 90.1691 1.98889 89.5945 1.13409 88.4556C-0.550106 86.2188 -0.33006 82.72 1.60804 80.8116L39.2444 43.9046L43.3914 39.8414L46.8021 43.3916Z" fill="url(#paint0_linear_23_156)"/>
<path d="M38.9143 52.5131L31.4751 61.0499L30.7895 52.2772L34.8604 48.2858L38.9143 52.5131Z" fill="#3A81D6" fill-opacity="0.8"/>
<path d="M76.576 29.9606C76.576 46.5108 65.506 59.9315 51.8632 59.9315C43.2644 59.9315 35.6898 54.6063 31.2635 46.521C28.6652 41.7807 27.1503 36.0861 27.1503 29.9606C27.1503 13.4105 38.2203 0 51.8632 0C58.0245 0 63.6526 2.72929 67.9773 7.2439C73.2415 12.7435 76.576 20.8801 76.576 29.9606Z" fill="url(#paint1_linear_23_156)"/>
<path d="M51.8632 53.3032C62.4969 53.3032 71.1172 42.8523 71.1172 29.9606C71.1172 17.0688 62.4969 6.61798 51.8632 6.61798C41.2295 6.61798 32.6091 17.0688 32.6091 29.9606C32.6091 42.8523 41.2295 53.3032 51.8632 53.3032Z" fill="white"/>
<path opacity="0.06" d="M76.576 29.9606C76.576 46.5108 65.506 59.9315 51.8632 59.9315C43.2644 59.9315 35.6898 54.6063 31.2635 46.521C59.1332 43.7712 66.4793 15.1445 67.9858 7.2439C73.2415 12.7435 76.576 20.8801 76.576 29.9606Z" fill="#1A6FB5" fill-opacity="0.5"/>
<path d="M51.8632 30.0119C54.0975 30.0119 55.9086 27.8162 55.9086 25.1074C55.9086 22.3986 54.0975 20.2029 51.8632 20.2029C49.6289 20.2029 47.8177 22.3986 47.8177 25.1074C47.8177 27.8162 49.6204 30.0119 51.8632 30.0119ZM51.8632 32.4642C49.1634 32.4642 43.7722 34.1058 43.7722 37.3687V38.5999C43.7722 39.2771 44.2293 39.8312 44.7878 39.8312H58.9554C59.514 39.8312 59.971 39.2771 59.971 38.5999V37.3687C59.9541 34.1161 54.563 32.4642 51.8632 32.4642Z" fill="url(#paint2_linear_23_156)"/>
</g>
<defs>
<linearGradient id="paint0_linear_23_156" x1="4.72447" y1="84.4753" x2="51.3691" y2="49.4985" gradientUnits="userSpaceOnUse">
<stop stop-color="#67C3F3"/>
<stop offset="1" stop-color="#5A98F2"/>
</linearGradient>
<linearGradient id="paint1_linear_23_156" x1="41.6418" y1="2.11709" x2="67.1693" y2="49.4529" gradientUnits="userSpaceOnUse">
<stop stop-color="#67C3F3"/>
<stop offset="1" stop-color="#5A98F2"/>
</linearGradient>
<linearGradient id="paint2_linear_23_156" x1="46.0138" y1="28.4448" x2="61.6257" y2="34.7256" gradientUnits="userSpaceOnUse">
<stop stop-color="#B0F4FF"/>
<stop offset="0.071077" stop-color="#A6F1FF"/>
<stop offset="0.2937" stop-color="#8BE8FD"/>
<stop offset="0.5209" stop-color="#78E1FD"/>
<stop offset="0.7536" stop-color="#6DDDFC"/>
<stop offset="1" stop-color="#69DCFC"/>
</linearGradient>
<clipPath id="clip0_23_156">
<rect width="76.576" height="90.1589" fill="white"/>
</clipPath>
</defs>
</svg>
