<svg width="52" height="86" viewBox="0 0 52 86" fill="none" xmlns="http://www.w3.org/2000/svg">
<g clip-path="url(#clip0_27_36)">
<path d="M51.4992 26.5274L51.3396 66.3985L51.313 74.1103C51.2864 80.2382 46.4463 85.182 40.4893 85.15L10.7307 84.99C4.78691 84.942 -0.0265911 79.9502 2.85593e-06 73.8063L0.18616 26.2234C0.199457 21.2635 3.39073 17.0716 7.75213 15.6796L7.76543 13.1197V11.8077L44.0263 12.0157L44.013 15.8876C48.3611 17.3436 51.5125 21.5515 51.4992 26.5274Z" fill="url(#paint0_linear_27_36)"/>
<path d="M46.7256 1.77596V2.12795L46.699 6.28786L46.6724 10.3678V10.8638C46.6724 11.6317 46.1405 12.2557 45.5023 12.2557H45.223L43.4678 12.2397L41.5398 12.2237L39.7846 12.2077L37.8565 12.1917L36.0747 12.1597L34.1466 12.1437L32.3914 12.1277L30.4501 12.1117L28.6816 12.0957L26.7535 12.0797L24.9983 12.0477L23.0703 12.0317L21.3151 12.0157L19.3737 11.9997L17.6052 11.9837L15.6904 11.9677L13.9352 11.9517L12.0072 11.9357L10.2387 11.9197L8.31062 11.9037L6.54212 11.8877H6.26288C5.62463 11.8877 5.10605 11.2477 5.10605 10.4798V10.4638V10.1118L5.15924 1.88796V1.39197C5.15924 0.623986 5.69112 0 6.34267 0H6.6219L10.3185 0.0319993L14.015 0.0639985L15.7835 0.0799982L17.7116 0.0959978L19.4668 0.111997L23.15 0.159996L25.0781 0.175996L26.8333 0.191996L28.7614 0.207995L30.5166 0.223995L32.4446 0.239994L34.1998 0.255994L36.1279 0.271994L37.8831 0.287993L39.8377 0.319993L41.5929 0.335992L43.521 0.351992L45.2895 0.367992H45.5687C46.2203 0.383991 46.7256 1.00798 46.7256 1.77596Z" fill="url(#paint1_linear_27_36)"/>
<path d="M46.7256 2.14393L46.699 6.28784L46.6724 10.3677L45.0901 10.3517L42.9891 10.3357L41.0611 10.3197H38.9468L37.0188 10.3037L34.9179 10.2877L32.9898 10.2717H30.8756L28.9475 10.2557L26.8333 10.2398L24.9185 10.2238H22.8043L20.8763 10.2078L18.762 10.1918L16.834 10.1758H14.7331L12.805 10.1598L10.6908 10.1438L8.76272 10.1278H6.66179L5.10605 10.1118L5.15924 1.88794L8.85579 1.90394L12.8848 1.93594L14.8128 1.95194L16.9271 1.96794H18.8551L22.8841 1.99994L24.9983 2.01594H26.9264L29.0406 2.03194L30.9554 2.04794L33.0696 2.06394H34.9976L37.1119 2.07994L39.0266 2.09593L41.1408 2.11193H43.0689L45.1831 2.12793L46.7256 2.14393Z" fill="url(#paint2_linear_27_36)"/>
<path d="M51.4602 34.9457L0.147163 34.6537L0.0395696 62.0291L51.3526 62.3211L51.4602 34.9457Z" fill="#F7F9FC"/>
<path d="M51.4693 34.9456L0.156235 34.6537L0.136873 39.5816L51.4499 39.8735L51.4693 34.9456Z" fill="#FBFCF7"/>
<path d="M20.1582 45.6608L16.8473 45.6448L16.8606 41.6449L12.2997 41.6289L12.2864 45.6128L8.97546 45.5968L8.94887 51.0687L12.2598 51.0847L12.2465 55.0846L16.8074 55.1006L16.8207 51.1167L20.1316 51.1327L20.1582 45.6608Z" fill="url(#paint3_linear_27_36)"/>
<path d="M42.6567 46.9888L26.2482 46.8928C25.8094 46.8928 25.4504 46.4608 25.4504 45.9328V45.4848C25.4504 44.9568 25.8094 44.5248 26.2482 44.5248L42.6567 44.6208C43.0955 44.6208 43.4545 45.0528 43.4545 45.5808V46.0288C43.4545 46.5568 43.0955 46.9888 42.6567 46.9888Z" fill="url(#paint4_linear_27_36)"/>
<path opacity="0.5" d="M42.6434 52.8607L26.2349 52.7647C25.7961 52.7647 25.4371 52.3327 25.4371 51.8047V51.3567C25.4371 50.8287 25.7961 50.3967 26.2349 50.3967L42.6434 50.4927C43.0822 50.4927 43.4412 50.9247 43.4412 51.4527V51.9007C43.4412 52.4287 43.0822 52.8607 42.6434 52.8607Z" fill="url(#paint5_linear_27_36)"/>
<path opacity="0.08" d="M5.10605 1.77595V2.12794L5.13264 6.28784L5.15924 10.3518V10.8477C5.15924 11.6157 5.69112 12.2397 6.32937 12.2397H6.60861L8.3771 12.2237L10.3052 12.2077L12.0604 12.1917L13.9884 12.1757L15.7436 12.1597L17.6717 12.1437L19.4269 12.1277L21.355 12.1117L23.1234 12.0957L25.0515 12.0797L26.8067 12.0637L28.7348 12.0477L30.49 12.0317L32.418 12.0157L34.1865 11.9997L36.1146 11.9837L37.8698 11.9677L39.7979 11.9517L41.5531 11.9357L43.4811 11.9197L45.2496 11.9037H45.5289C46.1671 11.9037 46.6857 11.2637 46.6857 10.4957V10.4797V10.1278C26.1153 11.1997 6.26289 0.367981 6.26289 0.367981C5.62463 0.383981 5.10605 1.00797 5.10605 1.77595Z" fill="#1A6FB5"/>
</g>
<defs>
<linearGradient id="paint0_linear_27_36" x1="2.58388e-06" y1="11.3533" x2="59.6744" y2="79.8015" gradientUnits="userSpaceOnUse">
<stop stop-color="#6CBCFC"/>
<stop offset="1" stop-color="#458DFC"/>
</linearGradient>
<linearGradient id="paint1_linear_27_36" x1="-524.446" y1="-40.0015" x2="-22.2317" y2="-10.9302" gradientUnits="userSpaceOnUse">
<stop stop-color="#B0F4FF"/>
<stop offset="0.0525488" stop-color="#A9F2FF"/>
<stop offset="0.2879" stop-color="#8DE8FE"/>
<stop offset="0.5247" stop-color="#79E1FD"/>
<stop offset="0.7618" stop-color="#6DDDFC"/>
<stop offset="1" stop-color="#69DCFC"/>
</linearGradient>
<linearGradient id="paint2_linear_27_36" x1="5.11179" y1="6.12389" x2="46.7273" y2="6.12389" gradientUnits="userSpaceOnUse">
<stop stop-color="#B0F4FF"/>
<stop offset="0.0525488" stop-color="#A9F2FF"/>
<stop offset="0.2879" stop-color="#8DE8FE"/>
<stop offset="0.5247" stop-color="#79E1FD"/>
<stop offset="0.7618" stop-color="#6DDDFC"/>
<stop offset="1" stop-color="#69DCFC"/>
</linearGradient>
<linearGradient id="paint3_linear_27_36" x1="18.2977" y1="43.1714" x2="8.81366" y2="52.2605" gradientUnits="userSpaceOnUse">
<stop stop-color="#6CBCFC"/>
<stop offset="1" stop-color="#458DFC"/>
</linearGradient>
<linearGradient id="paint4_linear_27_36" x1="43.6128" y1="45.7516" x2="24.0495" y2="45.7516" gradientUnits="userSpaceOnUse">
<stop stop-color="#6CBCFC"/>
<stop offset="1" stop-color="#458DFC"/>
</linearGradient>
<linearGradient id="paint5_linear_27_36" x1="25.4359" y1="51.6232" x2="43.4415" y2="51.6232" gradientUnits="userSpaceOnUse">
<stop stop-color="#6CBCFC"/>
<stop offset="1" stop-color="#458DFC"/>
</linearGradient>
<clipPath id="clip0_27_36">
<rect width="51.4992" height="85.15" fill="white"/>
</clipPath>
</defs>
</svg>
