<svg width="67" height="72" viewBox="0 0 67 72" fill="none" xmlns="http://www.w3.org/2000/svg">
<g clip-path="url(#clip0_33_0)">
<path d="M55.344 14.0355H11.0382V71.253H55.344V14.0355Z" fill="url(#paint0_linear_33_0)"/>
<path d="M10.8549 14.0355C10.9084 14.0355 10.9618 14.0631 11.0382 14.0907C11.0382 33.1264 11.0382 52.1621 11.0382 71.2254C7.60834 71.5471 4.71319 70.5085 2.41388 67.8429C0.786788 65.9495 -2.09912e-05 63.7251 -2.09912e-05 61.2066C-2.09912e-05 52.2908 -2.09912e-05 43.3842 -2.09912e-05 34.4684C-2.09912e-05 31.0675 -0.00765991 27.6666 -0.00765991 24.2657C-0.00765991 20.1571 1.83332 17.1699 5.21736 15.1477C6.95904 14.1183 8.89168 13.962 10.8549 14.0355Z" fill="url(#paint1_linear_33_0)"/>
<path d="M47.6058 14.0263C49.5842 14.0263 49.7829 14.0263 51.7537 14.0263C51.7537 33.1264 51.7537 52.1621 51.7537 71.2346C38.3016 71.2346 28.1265 71.2346 14.6285 71.2346C14.6285 52.1713 14.6285 33.1356 14.6285 14.0447C16.5994 14.0447 17.0272 14.0447 19.0362 14.0447C19.0362 13.8057 19.0362 13.6219 19.0362 13.4473C19.0362 11.3976 19.0438 9.33865 19.0286 7.28893C19.0133 5.85504 19.3341 4.60499 20.2661 3.63069C20.923 2.95051 21.6793 2.60123 22.5348 2.60123C25.1855 2.59204 27.8286 2.59204 30.4793 2.59204C34.9328 2.59204 39.3939 2.60123 43.8474 2.59204C45.0162 2.59204 45.9863 3.05162 46.7502 4.11784C47.3613 4.97265 47.5905 5.97453 47.5905 7.0959C47.5828 9.25592 47.5905 11.4159 47.5905 13.576C47.5828 13.6954 47.5905 13.8333 47.6058 14.0263ZM23.8182 14.0263C24.0015 14.0263 24.139 14.0263 24.2765 14.0263C26.3848 14.0263 28.5008 14.0263 30.6092 14.0263C34.5508 14.0263 38.5002 14.0263 42.4419 14.0355C42.755 14.0355 42.8238 13.916 42.8238 13.5576C42.8085 11.949 42.8238 10.3405 42.8238 8.732C42.8238 8.60332 42.8085 8.47464 42.7932 8.33677C36.4529 8.33677 30.1508 8.33677 23.8182 8.33677C23.8182 10.2302 23.8182 12.0869 23.8182 14.0263Z" fill="white"/>
<mask id="mask0_33_0" style="mask-type:alpha" maskUnits="userSpaceOnUse" x="14" y="2" width="38" height="70">
<path d="M47.6058 14.0262C49.5842 14.0262 49.7828 14.0262 51.7537 14.0262C51.7537 33.1263 51.7537 52.162 51.7537 71.2345C38.3015 71.2345 28.1265 71.2345 14.6285 71.2345C14.6285 52.1712 14.6285 33.1355 14.6285 14.0446C16.5994 14.0446 17.0271 14.0446 19.0362 14.0446C19.0362 13.8056 19.0362 13.6218 19.0362 13.4472C19.0362 11.3974 19.0438 9.33852 19.0285 7.28881C19.0133 5.85492 19.3341 4.60487 20.266 3.63057C20.923 2.95039 21.6792 2.60111 22.5348 2.60111C25.1855 2.59192 27.8286 2.59192 30.4793 2.59192C34.9328 2.59192 39.3939 2.60111 43.8474 2.59192C45.0162 2.59192 45.9863 3.0515 46.7502 4.11772C47.3613 4.97253 47.5905 5.97441 47.5905 7.09578C47.5828 9.2558 47.5905 11.4158 47.5905 13.5758C47.5828 13.6953 47.5905 13.8332 47.6058 14.0262ZM23.8181 14.0262C24.0015 14.0262 24.139 14.0262 24.2765 14.0262C26.3848 14.0262 28.5008 14.0262 30.6092 14.0262C34.5508 14.0262 38.5002 14.0262 42.4418 14.0354C42.755 14.0354 42.8238 13.9159 42.8238 13.5575C42.8085 11.9489 42.8238 10.3404 42.8238 8.73188C42.8238 8.6032 42.8085 8.47452 42.7932 8.33664C36.4529 8.33664 30.1508 8.33664 23.8181 8.33664C23.8181 10.2301 23.8181 12.0868 23.8181 14.0262Z" fill="#F7F9FC"/>
</mask>
<g mask="url(#mask0_33_0)">
<path d="M48.3676 -0.00012207H17.4835V14.0446H48.3676V-0.00012207Z" fill="url(#paint2_linear_33_0)"/>
</g>
<path d="M66.6038 24.1187C66.6038 20.3317 64.885 17.5099 61.8294 15.4602C59.9503 14.201 57.819 13.962 55.6343 14.0171C55.2982 14.0263 55.344 14.2377 55.344 14.4583C55.344 21.0763 55.344 27.685 55.344 34.3029C55.344 45.9302 55.344 57.5484 55.3363 69.1757C55.3363 69.8467 55.3363 70.5177 55.3363 71.2438C56.7114 71.299 58.0176 71.3082 59.301 70.9405C63.6399 69.7088 66.5961 65.8208 66.5961 61.2342C66.6114 48.8715 66.6038 36.4905 66.6038 24.1187Z" fill="url(#paint3_linear_33_0)"/>
<path d="M36.812 46.8678C36.812 48.0535 36.812 49.1749 36.812 50.3054C36.812 51.583 36.812 52.8607 36.812 54.1291C36.812 54.892 36.4911 55.2964 35.8647 55.2964C34.1383 55.3056 32.4119 55.3056 30.6856 55.2964C30.1126 55.2964 29.7918 54.8644 29.7918 54.1383C29.7918 51.8588 29.7918 49.5793 29.7918 47.2998C29.7918 47.1711 29.7918 47.0332 29.7918 46.8678C29.6467 46.8678 29.5397 46.8678 29.4251 46.8678C27.5612 46.8678 25.6897 46.8678 23.8258 46.8678C23.0848 46.8678 22.7793 46.5093 22.7793 45.6177C22.7793 43.6415 22.7793 41.6653 22.7793 39.6892C22.7793 38.7884 23.0772 38.4299 23.8182 38.4299C25.6744 38.4299 27.5307 38.4299 29.3869 38.4299C29.5092 38.4299 29.6237 38.4299 29.7842 38.4299C29.7842 38.2829 29.7842 38.1634 29.7842 38.0439C29.7842 35.7644 29.7842 33.4849 29.7842 31.2054C29.7842 30.3597 30.0974 29.9921 30.8001 29.9921C32.4425 29.9921 34.0849 29.9921 35.7272 29.9921C36.4988 29.9921 36.7967 30.3413 36.7967 31.2881C36.8043 33.5492 36.7967 35.8011 36.7967 38.0623C36.7967 38.1726 36.7967 38.2829 36.7967 38.4391C36.9189 38.4391 37.0259 38.4391 37.1252 38.4391C39.0196 38.4391 40.9141 38.4391 42.8085 38.4483C43.5037 38.4483 43.8016 38.816 43.8016 39.6524C43.8016 41.6378 43.8016 43.6232 43.8016 45.6085C43.8016 46.5185 43.5113 46.8678 42.7703 46.8678C40.8835 46.8678 38.9967 46.8678 37.1175 46.877C37.0411 46.8678 36.9495 46.8678 36.812 46.8678Z" fill="url(#paint4_linear_33_0)"/>
</g>
<defs>
<linearGradient id="paint0_linear_33_0" x1="11.0393" y1="42.6408" x2="55.3419" y2="42.6408" gradientUnits="userSpaceOnUse">
<stop stop-color="#B0F4FF"/>
<stop offset="1" stop-color="#69DCFC"/>
</linearGradient>
<linearGradient id="paint1_linear_33_0" x1="-2.09907e-05" y1="42.6499" x2="11.0393" y2="42.6499" gradientUnits="userSpaceOnUse">
<stop stop-color="#6CBCFC"/>
<stop offset="1" stop-color="#458DFC"/>
</linearGradient>
<linearGradient id="paint2_linear_33_0" x1="17.4803" y1="7.02074" x2="48.3663" y2="7.02074" gradientUnits="userSpaceOnUse">
<stop stop-color="#6CBCFC"/>
<stop offset="1" stop-color="#458DFC"/>
</linearGradient>
<linearGradient id="paint3_linear_33_0" x1="55.3382" y1="42.6442" x2="66.6044" y2="42.6442" gradientUnits="userSpaceOnUse">
<stop stop-color="#6CBCFC"/>
<stop offset="1" stop-color="#458DFC"/>
</linearGradient>
<linearGradient id="paint4_linear_33_0" x1="22.7839" y1="42.6534" x2="43.8169" y2="42.6534" gradientUnits="userSpaceOnUse">
<stop stop-color="#6CBCFC"/>
<stop offset="1" stop-color="#458DFC"/>
</linearGradient>
<clipPath id="clip0_33_0">
<rect width="66.6038" height="71.2806" fill="white"/>
</clipPath>
</defs>
</svg>
